<?xml version="1.0" standalone="no"?>
<!DOCTYPE svg PUBLIC "-//W3C//DTD SVG 20010904//EN"
 "http://www.w3.org/TR/2001/REC-SVG-20010904/DTD/svg10.dtd">
<svg version="1.0" xmlns="http://www.w3.org/2000/svg"
 width="3300.000000pt" height="3300.000000pt" viewBox="0 0 3300.000000 3300.000000"
 preserveAspectRatio="xMidYMid meet">

<g transform="translate(0.000000,3300.000000) scale(0.100000,-0.100000)"
fill="#000000" stroke="none">
<path d="M15990 32990 c-36 -4 -117 -8 -180 -9 -63 0 -177 -6 -255 -11 -77 -6
-207 -15 -290 -20 -141 -10 -218 -17 -460 -41 -143 -14 -390 -43 -510 -60
-192 -26 -225 -31 -285 -40 -36 -5 -90 -14 -120 -19 -30 -5 -86 -14 -125 -20
-64 -11 -97 -16 -225 -40 -25 -5 -72 -13 -105 -19 -93 -17 -266 -50 -310 -61
-22 -5 -105 -23 -185 -40 -153 -33 -587 -138 -705 -171 -38 -11 -86 -24 -105
-29 -391 -108 -740 -217 -1060 -330 -80 -28 -156 -55 -170 -60 -14 -4 -63 -23
-110 -40 -47 -17 -119 -44 -160 -60 -144 -53 -588 -234 -665 -270 -11 -5 -63
-28 -115 -51 -292 -126 -856 -402 -1150 -562 -200 -108 -403 -222 -460 -257
-25 -15 -90 -53 -145 -86 -691 -403 -1473 -955 -2129 -1503 -1454 -1214 -2647
-2607 -3611 -4216 -60 -99 -122 -205 -138 -235 -16 -30 -33 -59 -37 -65 -5 -5
-20 -31 -34 -57 -14 -27 -38 -69 -53 -95 -14 -27 -43 -79 -64 -118 -20 -38
-53 -99 -73 -135 -40 -73 -332 -660 -378 -760 -17 -36 -39 -85 -50 -110 -11
-25 -29 -62 -39 -83 -11 -22 -19 -45 -19 -53 0 -8 -4 -14 -10 -14 -5 0 -10 -9
-10 -19 0 -11 -5 -23 -10 -26 -15 -9 -12 -19 11 -46 15 -16 23 -20 26 -11 5
14 43 16 43 2 0 -5 9 -10 20 -10 11 0 20 5 20 10 0 6 -4 10 -10 10 -5 0 -10 5
-10 10 0 15 57 12 63 -2 4 -10 8 -9 16 2 8 12 13 11 29 -8 24 -27 32 -28 32
-2 0 11 4 20 8 20 4 0 14 -9 22 -20 8 -11 22 -20 32 -20 11 0 18 7 18 20 0 11
5 20 10 20 6 0 10 -7 10 -16 0 -8 7 -22 15 -31 14 -14 18 -13 34 6 23 26 31
27 31 1 0 -11 3 -20 6 -20 11 0 34 29 34 44 0 22 13 20 30 -4 8 -11 22 -20 32
-20 11 0 18 7 18 20 0 13 -7 20 -20 20 -11 0 -20 5 -20 10 0 14 37 12 44 -2 5
-10 7 -10 12 0 9 19 24 14 24 -8 0 -11 5 -20 10 -20 6 0 10 5 10 10 0 6 9 10
20 10 11 0 20 -4 20 -10 0 -5 9 -10 20 -10 22 0 27 -16 8 -23 -7 -2 -9 -8 -5
-13 4 -5 12 -2 18 6 8 13 10 13 20 0 8 -11 12 -12 16 -2 2 6 13 12 24 12 12 0
19 7 19 20 0 11 -4 20 -10 20 -5 0 -10 -4 -10 -10 0 -5 -7 -10 -16 -10 -20 0
-49 29 -39 38 4 4 10 1 12 -5 6 -17 40 -17 45 -1 6 17 38 -14 38 -36 0 -9 8
-16 19 -16 11 0 22 -6 24 -12 4 -10 8 -9 16 2 10 13 12 13 20 0 6 -8 13 -11
17 -8 3 4 -1 15 -11 24 -13 14 -18 15 -25 4 -7 -11 -11 -10 -25 3 -15 16 -15
18 0 33 14 15 17 14 34 -5 10 -12 24 -21 31 -21 7 0 21 -9 31 -21 17 -20 19
-20 35 -5 9 9 13 20 9 24 -4 4 -10 1 -12 -5 -7 -20 -23 -15 -23 7 0 16 7 20
36 20 41 0 76 -26 53 -40 -7 -5 -10 -12 -7 -16 4 -3 15 1 24 11 14 14 15 18 3
25 -7 5 -10 12 -6 17 5 4 12 1 18 -7 8 -13 10 -13 18 0 6 8 14 11 18 6 4 -5 2
-11 -4 -13 -20 -7 -15 -23 7 -23 13 0 20 7 20 20 0 13 7 20 20 20 11 0 20 -4
20 -10 0 -5 9 -10 19 -10 11 0 21 -6 24 -12 3 -9 12 -5 27 12 15 17 24 21 27
13 7 -20 54 -15 74 8 16 19 20 20 34 6 20 -21 19 -27 -5 -27 -11 0 -20 -4 -20
-10 0 -15 29 -12 46 4 8 8 14 22 14 30 0 12 11 16 50 16 54 0 58 -3 34 -27
-13 -13 -17 -14 -24 -3 -7 11 -12 10 -25 -4 -10 -9 -14 -20 -10 -24 4 -4 10
-1 12 6 7 19 23 14 23 -8 0 -16 7 -20 30 -20 30 0 41 14 18 23 -8 2 -9 8 -4
13 5 5 11 4 13 -3 8 -22 43 -15 43 7 0 22 15 27 23 8 4 -10 8 -9 16 2 5 8 13
11 17 7 4 -4 -3 -16 -16 -27 -13 -11 -20 -23 -15 -28 4 -4 10 -1 12 6 3 6 13
12 24 12 10 0 19 5 19 10 0 6 9 10 20 10 11 0 20 5 20 10 0 6 5 10 10 10 6 0
10 -9 10 -20 0 -24 6 -25 27 -4 14 13 14 17 2 24 -7 5 -10 13 -5 17 5 4 11 2
13 -4 3 -7 13 -13 24 -13 10 0 19 -4 19 -10 0 -5 -9 -10 -20 -10 -24 0 -25 -6
-5 -26 13 -14 17 -14 30 0 8 8 15 26 15 40 0 30 5 32 28 9 12 -12 13 -18 4
-21 -23 -7 -12 -22 18 -22 17 0 30 -4 30 -10 0 -5 5 -10 10 -10 6 0 10 9 10
20 0 11 5 20 10 20 6 0 10 9 10 20 0 11 5 20 10 20 6 0 10 -9 10 -20 0 -11 -4
-20 -10 -20 -5 0 -10 -4 -10 -10 0 -5 14 -10 30 -10 17 0 30 5 30 10 0 6 -4
10 -10 10 -5 0 -10 5 -10 10 0 6 9 10 20 10 11 0 20 -4 20 -10 0 -5 9 -10 20
-10 11 0 20 5 20 10 0 6 14 10 30 10 17 0 30 -4 30 -10 0 -5 9 -10 20 -10 11
0 20 -4 20 -10 0 -5 9 -10 20 -10 26 0 25 8 -2 31 -11 11 -18 22 -15 26 4 3
15 -4 26 -15 25 -30 91 -31 91 -2 0 11 5 20 10 20 6 0 10 -13 10 -30 0 -38 5
-38 41 1 16 18 33 28 37 24 4 -4 1 -10 -5 -12 -7 -3 -13 -9 -13 -14 0 -14 38
-11 43 4 2 7 8 8 13 3 5 -5 4 -11 -3 -13 -20 -7 -15 -23 7 -23 11 0 20 5 20
10 0 6 9 10 20 10 11 0 20 5 20 10 0 6 -4 10 -10 10 -5 0 -10 5 -10 10 0 6 9
10 20 10 16 0 20 -7 20 -30 0 -23 5 -30 19 -30 11 0 21 -6 24 -12 2 -7 8 -10
12 -6 5 5 -2 16 -13 27 -27 23 -28 31 -2 31 11 0 20 -4 20 -10 0 -18 35 -11
50 10 15 21 50 28 50 10 0 -5 -9 -10 -20 -10 -13 0 -20 -7 -20 -20 0 -11 5
-20 10 -20 6 0 10 5 10 10 0 6 14 10 30 10 17 0 30 5 30 10 0 6 9 10 20 10 11
0 20 -4 20 -10 0 -5 -4 -10 -10 -10 -5 0 -10 -9 -10 -20 0 -13 7 -20 20 -20
22 0 27 16 8 22 -9 3 -8 10 5 23 16 15 20 16 29 4 7 -11 11 -11 15 -1 2 6 13
12 23 12 10 0 20 -6 23 -12 2 -8 8 -9 13 -4 5 5 4 11 -3 13 -20 7 -15 23 7 23
11 0 20 -4 20 -10 0 -15 57 -12 64 3 5 10 7 10 12 0 3 -7 19 -13 35 -13 16 0
29 -4 29 -10 0 -5 -4 -10 -10 -10 -5 0 -10 -9 -10 -20 0 -11 5 -20 10 -20 6 0
10 9 10 20 0 16 7 20 36 20 25 0 43 7 56 22 16 19 21 20 29 8 8 -11 12 -12 16
-2 6 14 43 16 43 2 0 -5 9 -10 20 -10 13 0 20 -7 20 -20 0 -11 5 -20 10 -20 6
0 10 9 10 20 0 11 5 20 10 20 6 0 10 -4 10 -10 0 -5 9 -10 20 -10 13 0 20 -7
20 -20 0 -11 5 -20 10 -20 15 0 12 58 -2 63 -8 2 -9 8 -4 13 5 5 11 4 13 -3 5
-15 43 -17 43 -3 0 6 9 10 20 10 11 0 20 -4 20 -10 0 -5 -9 -10 -20 -10 -13 0
-20 -7 -20 -19 0 -11 -6 -21 -12 -24 -7 -2 -9 -8 -5 -13 4 -5 12 -2 18 6 8 13
10 13 18 0 8 -12 13 -11 30 9 l21 24 20 -23 20 -23 21 24 c16 19 22 21 29 9 5
-8 12 -11 17 -7 4 5 1 12 -7 17 -8 5 -11 12 -8 16 4 4 21 -7 37 -25 16 -17 32
-31 35 -31 12 0 6 38 -6 42 -15 5 13 38 32 38 12 0 40 -24 40 -34 0 -12 -38
-6 -43 7 -2 6 -8 9 -12 5 -17 -16 25 -38 75 -38 49 0 92 21 76 38 -4 3 -11 0
-16 -8 -5 -8 -12 -11 -16 -8 -3 4 2 15 12 25 12 13 19 14 22 5 2 -6 12 -12 22
-12 10 0 20 -6 23 -12 3 -9 11 -6 24 10 12 12 32 22 47 22 30 0 32 -5 10 -27
-13 -14 -17 -14 -24 -2 -5 7 -12 10 -16 7 -3 -4 2 -15 12 -25 12 -13 19 -14
22 -5 7 21 42 14 42 -8 0 -11 5 -20 10 -20 6 0 10 18 10 40 0 22 5 40 10 40 6
0 10 -4 10 -10 0 -14 38 -12 43 3 2 7 8 8 13 3 5 -5 4 -11 -3 -13 -15 -5 -18
-63 -3 -63 6 0 10 7 10 16 0 23 25 44 54 44 14 0 26 5 26 10 0 6 5 10 10 10 6
0 10 -9 10 -20 0 -26 8 -25 31 2 11 11 22 18 26 14 4 -4 1 -11 -7 -16 -8 -5
-11 -12 -7 -17 5 -4 12 -1 18 7 8 13 10 13 18 0 6 -8 13 -11 18 -7 4 5 1 12
-7 17 -8 5 -11 12 -8 16 10 9 38 -21 38 -40 0 -9 8 -16 20 -16 13 0 20 7 20
20 0 22 15 27 24 8 5 -10 7 -10 12 0 9 19 24 14 24 -8 0 -11 5 -20 10 -20 6 0
10 5 10 10 0 6 9 10 20 10 11 0 20 -4 20 -10 0 -5 5 -10 10 -10 6 0 10 9 10
20 0 11 5 20 10 20 6 0 10 -7 10 -16 0 -8 7 -22 15 -30 13 -13 18 -12 40 10
32 32 31 36 -5 36 -16 0 -30 5 -30 10 0 18 55 11 70 -10 15 -21 50 -28 50 -10
0 15 29 12 46 -4 8 -8 14 -22 14 -30 0 -12 10 -16 40 -16 44 0 48 4 24 27 -13
14 -17 14 -24 2 -5 -7 -12 -10 -16 -7 -3 4 2 15 12 25 12 13 19 14 22 5 2 -6
12 -12 22 -12 10 0 20 -6 22 -12 3 -9 10 -8 23 5 15 16 16 20 4 27 -7 5 -10
12 -7 16 4 3 15 -2 25 -12 13 -12 14 -19 5 -22 -6 -2 -12 -8 -12 -13 0 -14 37
-11 44 4 5 10 7 10 12 0 14 -31 84 -5 84 31 0 19 16 21 23 4 4 -10 8 -9 16 2
5 8 13 11 17 7 4 -4 -3 -15 -14 -26 -29 -25 -28 -31 8 -31 27 0 30 3 30 30 0
17 5 30 10 30 6 0 10 -4 10 -10 0 -5 7 -10 16 -10 19 0 49 -28 40 -38 -4 -3
-11 0 -16 8 -5 8 -12 11 -16 8 -3 -4 1 -15 10 -24 16 -15 18 -15 35 5 10 12
25 21 32 21 8 0 21 9 29 20 8 11 22 20 32 20 11 0 18 -7 18 -20 0 -13 -7 -20
-20 -20 -11 0 -20 -4 -20 -10 0 -14 37 -12 44 3 5 10 7 10 12 0 6 -14 44 -18
44 -5 0 4 -9 14 -20 22 -26 18 -26 30 0 30 11 0 20 -4 20 -10 0 -5 14 -10 30
-10 27 0 30 -3 30 -30 0 -16 5 -30 10 -30 6 0 10 9 10 20 0 26 8 25 31 -2 11
-11 22 -18 27 -13 4 4 1 10 -5 12 -18 6 -16 31 2 49 13 14 17 14 30 0 8 -8 15
-20 15 -26 0 -16 29 -44 38 -36 3 4 0 12 -8 17 -11 8 -12 12 -2 16 6 2 12 13
12 24 0 10 5 19 10 19 6 0 10 -9 10 -20 0 -22 16 -27 23 -7 3 8 11 5 24 -10
23 -26 53 -30 53 -7 0 15 23 44 34 44 3 0 6 -9 6 -20 0 -16 7 -20 30 -20 17 0
30 -4 30 -10 0 -5 5 -10 10 -10 16 0 12 30 -7 48 -12 12 -18 13 -21 4 -6 -19
-22 -14 -22 8 0 27 28 26 52 -2 16 -19 21 -20 28 -8 5 8 13 11 17 6 4 -5 2
-11 -4 -13 -7 -3 -13 -9 -13 -14 0 -14 98 -11 103 4 2 7 8 8 13 3 5 -5 4 -11
-3 -13 -19 -7 -16 -23 3 -23 9 0 25 10 35 22 l19 21 19 -21 c25 -29 31 -28 31
8 0 17 5 30 10 30 6 0 10 -7 10 -16 0 -18 24 -44 41 -44 6 0 20 10 30 21 l19
22 30 -33 c17 -18 34 -29 38 -25 4 4 1 10 -5 12 -7 3 -13 11 -13 20 0 18 29
48 38 39 3 -4 0 -11 -7 -16 -12 -7 -11 -11 4 -27 13 -13 20 -14 23 -5 7 21 42
14 42 -8 0 -11 5 -20 10 -20 6 0 10 9 10 20 0 11 -4 20 -10 20 -5 0 -10 9 -10
20 0 11 4 20 8 20 4 0 14 -9 22 -20 15 -21 50 -28 50 -10 0 6 9 10 20 10 11 0
20 -4 20 -10 0 -5 9 -10 20 -10 11 0 20 -4 20 -10 0 -5 5 -10 10 -10 6 0 10 9
10 20 0 24 6 25 27 4 14 -13 14 -17 2 -24 -7 -5 -10 -12 -6 -16 4 -4 15 3 26
14 10 12 25 22 32 22 8 0 21 9 29 20 15 21 50 28 50 10 0 -5 -9 -10 -20 -10
-16 0 -20 -7 -20 -30 0 -23 4 -30 20 -30 11 0 20 5 20 10 0 6 -4 10 -10 10 -5
0 -10 5 -10 10 0 6 14 10 30 10 23 0 30 -4 30 -20 0 -11 5 -20 10 -20 6 0 10
9 10 20 0 11 -4 20 -10 20 -5 0 -10 9 -10 20 0 11 5 20 10 20 6 0 10 -7 10
-16 0 -22 32 -53 38 -36 6 20 53 14 73 -10 11 -11 22 -18 26 -14 4 4 1 11 -6
16 -12 7 -12 11 2 24 21 21 27 20 27 -4 0 -16 7 -20 30 -20 17 0 30 5 30 10 0
15 58 12 63 -2 2 -7 8 -9 13 -5 5 4 2 12 -6 17 -8 5 -11 12 -7 16 4 4 15 -3
26 -14 10 -12 21 -22 25 -22 12 0 6 38 -6 43 -7 2 -10 8 -6 12 5 5 16 -2 27
-13 10 -12 25 -22 34 -22 8 0 18 -6 21 -12 5 -10 7 -10 12 0 3 6 14 12 25 12
12 0 19 7 19 20 0 13 7 20 20 20 11 0 20 -4 20 -10 0 -5 13 -10 28 -10 16 0
34 -8 42 -20 17 -24 30 -26 30 -4 0 22 25 44 50 44 25 0 50 -22 50 -44 0 -9 8
-16 20 -16 11 0 20 -4 20 -10 0 -5 5 -10 10 -10 6 0 10 18 10 40 0 22 3 40 6
40 11 0 34 -29 34 -44 0 -9 8 -16 19 -16 11 0 22 -6 24 -12 4 -10 8 -9 16 2
10 13 12 13 22 0 8 -11 12 -12 16 -2 2 6 13 12 24 12 10 0 19 5 19 10 0 6 12
10 26 10 15 0 35 10 45 22 11 11 22 18 26 14 4 -4 1 -11 -7 -16 -8 -5 -11 -12
-7 -16 4 -4 16 3 27 16 l20 23 29 -32 c28 -30 81 -44 81 -21 0 6 9 10 20 10
22 0 27 -16 8 -23 -8 -2 -9 -8 -4 -13 5 -5 11 -4 13 4 5 14 43 16 43 2 0 -5
14 -10 30 -10 23 0 30 4 30 20 0 11 -4 20 -10 20 -5 0 -10 -4 -10 -10 0 -5 -9
-10 -20 -10 -11 0 -20 3 -20 6 0 14 31 34 53 34 14 0 27 6 30 13 2 6 8 8 13 4
5 -4 3 -11 -4 -16 -9 -5 -10 -28 -6 -85 4 -42 10 -72 14 -66 8 12 13 -10 29
-120 4 -30 9 -49 10 -42 0 6 6 12 11 12 6 0 10 -30 10 -70 0 -39 4 -70 10 -70
5 0 9 -8 8 -17 -1 -10 0 -46 0 -80 2 -56 4 -63 22 -63 26 0 25 -8 -2 -31 -11
-11 -18 -22 -13 -27 4 -4 10 -1 12 6 12 32 23 5 23 -55 0 -38 7 -113 15 -167
8 -55 15 -115 16 -135 1 -33 2 -34 9 -11 8 24 8 24 9 -7 1 -17 -5 -34 -11 -36
-10 -4 -10 -7 0 -15 8 -5 14 -39 17 -93 2 -46 8 -104 14 -129 6 -25 10 -52 9
-60 -1 -8 1 -44 5 -80 3 -36 9 -125 12 -199 3 -93 9 -137 17 -143 10 -6 10
-10 -2 -18 -12 -8 -12 -12 -3 -18 9 -6 15 -58 19 -173 6 -174 27 -367 44 -399
5 -10 10 -27 10 -38 0 -52 98 -232 126 -232 8 0 14 -4 14 -9 0 -18 167 -92
240 -106 64 -12 620 -15 3870 -16 4320 -2 4193 -2 4445 -23 100 -9 302 -43
325 -55 9 -5 31 -12 50 -15 33 -7 47 -12 103 -36 26 -11 80 -33 87 -35 30 -8
50 -18 50 -26 0 -5 3 -8 8 -7 12 4 122 -52 122 -62 0 -6 5 -10 11 -10 6 0 33
-16 59 -35 26 -19 50 -31 54 -28 4 4 9 -3 13 -15 3 -12 11 -22 17 -22 31 0
208 -202 276 -315 13 -22 27 -42 31 -45 3 -3 17 -25 29 -50 12 -25 29 -48 36
-53 7 -4 11 -14 8 -21 -3 -7 2 -16 10 -19 9 -4 13 -13 10 -22 -3 -8 -2 -15 4
-15 5 0 20 -28 32 -62 13 -35 27 -67 31 -73 6 -9 42 -133 54 -190 9 -42 25
-131 29 -162 3 -18 7 -37 11 -42 5 -9 19 -209 19 -271 -1 -45 -15 -254 -19
-280 -7 -41 43 76 84 195 86 248 124 479 124 755 0 500 -141 907 -440 1278
-292 360 -712 548 -1323 592 -95 6 -1543 10 -4226 10 -3941 0 -4081 1 -4097
18 -16 17 -17 122 -17 1299 0 1227 1 1281 18 1296 17 16 321 17 4168 17 2708
0 4205 -4 4309 -10 902 -58 1622 -258 2290 -638 195 -111 488 -316 634 -443
24 -21 48 -36 54 -32 5 3 7 2 4 -4 -4 -6 31 -45 78 -87 48 -43 86 -72 90 -66
4 6 -8 25 -27 42 -18 17 -32 35 -30 40 1 5 -2 7 -7 4 -5 -3 -20 3 -32 14 -13
11 -20 19 -14 20 5 0 -1 7 -13 16 -12 8 -22 21 -22 27 -1 7 -39 39 -86 72 -47
32 -80 61 -73 64 7 2 15 -1 17 -7 2 -7 12 -12 22 -12 10 0 20 -6 23 -12 2 -7
8 -10 12 -6 4 4 -29 31 -74 60 -49 32 -81 60 -81 71 0 9 -4 17 -10 17 -5 0
-10 -5 -10 -11 0 -5 -5 -7 -11 -4 -6 4 -8 13 -5 21 3 8 1 14 -3 14 -5 0 -7 8
-4 19 3 10 0 22 -6 25 -6 4 -11 0 -11 -9 0 -12 -5 -15 -16 -11 -9 3 -18 6 -20
6 -2 0 -4 10 -4 23 0 18 -12 30 -47 50 -44 24 -46 27 -20 27 15 0 27 5 27 10
0 15 58 12 63 -2 2 -7 8 -9 13 -5 5 4 2 12 -6 17 -8 5 -11 12 -7 16 4 4 15 -3
26 -14 10 -12 21 -22 25 -22 12 0 6 38 -6 43 -7 2 -10 8 -6 12 5 5 16 -2 27
-13 10 -12 25 -22 34 -22 8 0 18 -6 21 -12 5 -10 7 -10 12 0 3 6 14 12 25 12
12 0 19 7 19 20 0 13 7 20 20 20 11 0 20 -4 20 -10 0 -5 13 -10 28 -10 16 0
34 -8 42 -20 17 -24 30 -26 30 -4 0 22 25 44 50 44 25 0 50 -22 50 -44 0 -9 8
-16 20 -16 11 0 20 -4 20 -10 0 -5 5 -10 10 -10 6 0 10 18 10 40 0 22 3 40 6
40 11 0 34 -29 34 -44 0 -9 8 -16 19 -16 11 0 22 -6 24 -12 4 -10 8 -9 16 2
10 13 12 13 22 0 8 -11 12 -12 16 -2 2 6 13 12 24 12 10 0 19 5 19 10 0 6 12
10 26 10 15 0 35 10 45 22 11 11 22 18 26 14 4 -4 1 -11 -7 -16 -8 -5 -11 -12
-7 -16 4 -4 16 3 27 16 l20 23 29 -32 c34 -36 70 -40 91 -11 8 11 22 20 31 20
10 0 19 6 22 13 2 6 8 8 13 4 5 -4 2 -12 -5 -17 -21 -12 10 -40 43 -40 32 0
33 7 4 31 -11 11 -18 22 -13 27 4 4 10 1 12 -5 6 -17 40 -17 45 -1 3 9 10 8
22 -5 10 -10 15 -21 12 -25 -4 -3 -11 0 -16 8 -5 8 -13 11 -17 6 -4 -5 -2 -11
5 -13 6 -3 12 -13 12 -24 0 -10 3 -19 6 -19 14 0 34 31 34 54 0 22 4 26 30 26
17 0 30 -4 30 -10 0 -5 -4 -10 -10 -10 -5 0 -10 -4 -10 -10 0 -5 9 -10 20 -10
11 0 20 5 20 10 0 6 9 10 20 10 11 0 20 5 20 10 0 6 9 10 20 10 11 0 20 -4 20
-10 0 -5 -7 -10 -16 -10 -8 0 -22 -7 -30 -15 -14 -13 -14 -17 1 -31 9 -9 19
-13 23 -9 4 4 1 10 -5 12 -20 7 -15 23 6 23 11 0 22 6 24 13 4 9 8 8 16 -3 5
-8 14 -11 18 -6 4 5 2 11 -4 13 -24 9 -13 23 17 23 30 0 41 -14 18 -23 -8 -2
-9 -8 -4 -13 5 -5 11 -4 13 4 3 6 13 12 23 12 10 0 20 6 22 12 3 9 9 8 21 -4
19 -18 23 -48 7 -48 -5 0 -10 5 -10 10 0 6 -9 10 -20 10 -24 0 -25 -6 -6 -26
20 -20 35 -18 59 9 13 15 21 18 24 10 9 -24 23 -13 23 17 0 23 4 30 20 30 11
0 20 -4 20 -10 0 -5 -4 -10 -10 -10 -5 0 -10 -9 -10 -20 0 -17 7 -20 40 -20
22 0 40 5 40 10 0 6 -4 10 -10 10 -5 0 -10 5 -10 10 0 18 35 11 50 -10 16 -23
84 -28 94 -7 5 10 7 10 12 0 3 -7 14 -13 25 -13 10 0 19 -4 19 -10 0 -5 9 -10
20 -10 26 0 25 8 -2 31 -11 11 -18 22 -14 26 4 4 11 1 17 -7 8 -13 10 -13 19
0 9 13 11 13 19 0 8 -12 13 -11 29 8 19 22 72 31 72 12 0 -5 -13 -10 -30 -10
-27 0 -30 -3 -30 -30 0 -35 10 -38 30 -10 8 11 22 20 32 20 11 0 18 7 18 20 0
24 6 25 27 4 13 -13 14 -17 3 -24 -11 -7 -10 -11 3 -24 20 -20 27 -20 27 0 0
19 28 49 38 40 3 -4 0 -11 -8 -16 -8 -5 -11 -13 -6 -17 5 -4 11 -2 13 5 3 6
13 12 23 12 10 0 20 -6 23 -12 2 -8 8 -9 13 -4 5 5 4 11 -3 13 -20 7 -15 23 7
23 11 0 20 -4 20 -10 0 -5 9 -10 20 -10 11 0 20 5 20 10 0 6 9 10 19 10 11 0
21 6 24 13 3 8 11 5 24 -10 11 -13 28 -23 37 -23 9 0 16 -4 16 -10 0 -5 14
-10 30 -10 23 0 30 4 30 20 0 11 5 20 10 20 6 0 10 -4 10 -10 0 -5 9 -10 20
-10 11 0 20 -4 20 -10 0 -5 14 -10 30 -10 28 0 30 2 30 40 0 22 5 40 10 40 6
0 10 -13 10 -30 0 -23 4 -30 20 -30 13 0 20 7 20 20 0 11 5 20 10 20 6 0 10
-18 10 -40 0 -38 13 -54 23 -27 4 9 8 8 16 -3 5 -8 14 -11 18 -6 4 5 2 11 -4
13 -7 3 -13 13 -13 24 0 31 47 24 80 -11 27 -29 60 -40 60 -20 0 6 -7 10 -16
10 -20 0 -49 29 -39 38 4 4 10 1 12 -5 3 -7 18 -13 34 -13 22 0 29 -5 29 -20
0 -11 5 -20 10 -20 6 0 10 9 10 20 0 17 7 20 50 20 28 0 50 -4 50 -10 0 -5 -4
-10 -10 -10 -5 0 -10 -4 -10 -10 0 -16 30 -12 48 7 12 12 13 18 4 21 -14 4
-16 42 -2 42 6 0 10 -4 10 -10 0 -5 9 -10 20 -10 22 0 27 -16 8 -23 -8 -2 -9
-8 -4 -13 5 -5 11 -4 13 4 7 19 34 14 56 -10 13 -16 21 -19 24 -10 3 6 18 12
34 12 35 0 36 6 7 31 -11 11 -18 22 -13 27 4 4 10 1 12 -5 3 -7 13 -13 24 -13
12 0 19 -7 19 -20 0 -11 3 -20 6 -20 11 0 34 29 34 44 0 9 5 16 10 16 6 0 10
-4 10 -10 0 -5 9 -10 20 -10 22 0 27 -16 8 -23 -8 -2 -9 -8 -4 -13 5 -5 11 -4
13 4 3 6 13 12 23 12 10 0 21 -6 23 -12 4 -10 8 -9 16 2 8 12 13 11 31 -9 11
-14 23 -21 28 -16 4 4 1 10 -5 12 -20 7 -15 23 7 23 13 0 20 7 20 20 0 11 5
20 10 20 15 0 12 -58 -2 -63 -7 -2 -10 -8 -6 -12 9 -10 38 19 38 39 0 22 9 20
33 -6 13 -16 21 -19 24 -10 3 6 17 12 33 12 16 0 30 -6 33 -12 2 -7 8 -9 13
-5 5 4 2 12 -5 17 -12 7 -12 11 2 24 22 23 27 20 27 -14 0 -23 4 -30 20 -30
11 0 20 5 20 10 0 18 32 11 51 -12 11 -11 22 -18 26 -14 4 4 1 11 -6 16 -12 7
-11 11 4 27 13 13 20 14 23 5 4 -14 42 -17 42 -3 0 5 -6 11 -12 14 -8 2 -9 8
-4 13 5 5 11 4 13 -3 3 -7 13 -13 24 -13 10 0 19 -4 19 -10 0 -5 -4 -10 -10
-10 -5 0 -10 -9 -10 -20 0 -16 7 -20 30 -20 30 0 41 14 18 23 -8 2 -9 8 -4 13
5 5 11 4 13 -3 8 -22 43 -15 43 7 0 13 7 20 20 20 11 0 20 5 20 10 0 6 5 10
10 10 6 0 10 -9 10 -20 0 -11 5 -20 10 -20 6 0 10 9 10 20 0 11 5 20 10 20 6
0 10 -7 10 -16 0 -8 7 -22 15 -31 14 -14 18 -13 35 7 17 20 21 21 35 7 8 -9
15 -23 15 -31 0 -22 9 -20 32 6 16 19 21 20 29 8 8 -11 12 -12 16 -2 3 7 24
12 54 12 42 0 49 -3 49 -20 0 -18 7 -20 60 -20 33 0 60 4 60 10 0 6 -9 10 -20
10 -11 0 -20 5 -20 10 0 6 9 10 20 10 11 0 20 5 20 10 0 15 77 12 84 -2 5 -10
7 -10 12 0 9 20 55 14 77 -10 13 -16 21 -19 24 -10 7 20 54 14 74 -10 11 -11
22 -18 26 -15 3 4 -4 15 -15 26 -27 22 -28 31 -4 31 10 0 24 -9 32 -20 17 -24
30 -26 30 -4 0 8 6 22 14 30 17 16 46 19 46 4 0 -5 14 -10 30 -10 17 0 30 -4
30 -10 0 -15 77 -12 83 3 4 9 8 8 16 -3 10 -13 12 -13 22 0 8 11 12 12 16 3 6
-15 63 -18 63 -3 0 6 -4 10 -10 10 -5 0 -10 5 -10 10 0 6 9 10 20 10 13 0 20
-7 20 -20 0 -26 8 -25 31 2 11 11 22 18 27 13 4 -4 1 -10 -5 -12 -13 -5 -19
-43 -7 -43 4 0 15 10 25 21 l19 22 30 -33 c17 -18 34 -29 38 -25 4 4 1 10 -5
12 -20 7 -15 23 6 23 11 0 22 6 24 13 4 9 8 8 17 -3 9 -11 13 -12 17 -2 6 14
63 17 63 2 0 -5 5 -10 10 -10 6 0 10 9 10 20 0 11 5 20 10 20 6 0 10 -4 10
-10 0 -14 38 -12 43 3 2 6 8 8 13 4 5 -4 2 -13 -6 -18 -11 -8 -12 -12 -2 -16
6 -2 12 -13 12 -24 0 -10 5 -19 10 -19 6 0 10 9 10 20 0 12 7 20 16 20 9 0 25
10 35 22 11 11 22 18 26 14 4 -4 1 -11 -7 -16 -8 -5 -11 -13 -6 -17 5 -4 11
-2 13 5 5 14 83 17 83 3 0 -5 -6 -11 -12 -14 -8 -2 -9 -8 -4 -13 5 -5 11 -4
13 4 3 7 21 12 43 12 21 0 41 6 44 13 5 10 7 10 12 0 3 -7 19 -13 35 -13 22 0
29 -5 29 -20 0 -11 5 -20 10 -20 14 0 12 38 -2 42 -17 6 14 38 36 38 19 0 21
-16 4 -23 -7 -2 -10 -8 -6 -12 5 -5 18 3 29 16 15 16 23 20 26 12 6 -16 103
-18 103 -3 0 6 5 10 10 10 6 0 10 -13 10 -30 0 -16 5 -30 10 -30 6 0 10 9 10
20 0 13 7 20 20 20 22 0 27 -16 8 -23 -7 -2 -10 -8 -6 -12 5 -5 16 2 27 13 18
21 51 30 51 14 0 -4 -9 -14 -20 -22 -28 -20 -25 -30 8 -30 16 0 34 8 42 20 15
21 50 28 50 10 0 -5 5 -10 10 -10 6 0 10 9 10 20 0 11 5 20 10 20 6 0 10 -9
10 -20 0 -11 5 -20 10 -20 6 0 10 5 10 10 0 14 38 12 43 -2 2 -8 8 -9 13 -4 5
5 4 11 -3 13 -20 7 -15 23 6 23 11 0 21 6 24 13 2 6 8 8 13 4 5 -4 2 -12 -5
-17 -12 -7 -12 -11 2 -24 17 -17 47 -22 47 -7 0 5 -6 11 -12 14 -7 2 -10 8 -6
12 5 5 16 -2 27 -13 23 -27 31 -28 31 -2 0 16 7 20 30 20 27 0 30 -3 30 -30 0
-16 3 -30 6 -30 11 0 34 29 34 44 0 19 17 21 22 4 3 -9 10 -8 23 5 15 16 16
20 4 27 -7 5 -10 12 -7 16 4 4 21 -7 37 -25 16 -17 36 -31 45 -31 9 0 16 -4
16 -10 0 -5 5 -10 10 -10 6 0 10 9 10 20 0 16 7 20 30 20 17 0 30 5 30 10 0 6
5 10 10 10 18 0 11 -32 -12 -51 -11 -11 -18 -22 -14 -26 4 -4 11 -1 17 7 8 13
10 13 20 0 8 -11 12 -12 16 -2 2 6 17 12 33 12 16 0 31 6 33 13 4 9 8 8 17 -3
9 -11 13 -12 17 -2 2 6 17 12 33 12 16 0 30 6 33 13 2 7 8 8 13 3 5 -5 4 -11
-3 -13 -24 -9 -13 -23 17 -23 23 0 30 4 30 20 0 24 6 25 27 4 14 -13 14 -17 2
-24 -7 -5 -10 -13 -5 -17 5 -4 11 -2 13 5 6 16 40 16 45 0 3 -9 10 -7 24 6 13
14 15 21 6 24 -6 2 -12 8 -12 13 0 15 30 10 47 -7 14 -13 14 -17 2 -24 -7 -5
-10 -12 -6 -17 5 -4 13 -1 18 7 8 11 12 12 16 3 6 -15 43 -17 43 -3 0 6 -9 10
-20 10 -24 0 -25 6 -5 27 14 14 18 13 34 -6 10 -12 25 -21 34 -21 8 0 18 -6
20 -12 4 -10 8 -9 16 2 10 13 12 13 20 0 6 -8 13 -11 17 -7 4 4 -3 15 -14 26
-23 19 -30 51 -12 51 6 0 10 -9 10 -20 0 -11 5 -20 10 -20 6 0 10 5 10 10 0 6
5 10 10 10 6 0 10 -13 10 -30 0 -16 5 -30 10 -30 6 0 10 9 10 20 0 16 7 20 30
20 17 0 30 -4 30 -10 0 -5 5 -10 10 -10 14 0 12 38 -2 43 -8 2 -9 8 -4 13 5 5
11 4 13 -3 3 -7 12 -13 22 -13 9 0 23 -9 31 -20 15 -21 50 -28 50 -10 0 6 14
10 30 10 30 0 41 -14 18 -23 -8 -2 -9 -8 -4 -13 5 -5 11 -4 13 4 3 6 13 12 24
12 12 0 19 7 19 20 0 13 7 20 20 20 13 0 20 -7 20 -20 0 -11 5 -20 10 -20 6 0
10 9 10 20 0 16 7 20 30 20 23 0 30 -4 30 -20 0 -11 5 -20 10 -20 6 0 10 5 10
10 0 6 9 10 19 10 11 0 22 6 24 13 4 9 8 8 17 -3 9 -11 13 -12 17 -2 8 19 23
14 23 -8 0 -11 -4 -20 -10 -20 -5 0 -10 -4 -10 -10 0 -23 53 -9 83 23 19 20
32 27 34 20 7 -20 54 -15 74 8 17 20 19 20 35 5 9 -9 13 -20 9 -24 -4 -4 -10
-1 -12 6 -9 23 -23 12 -23 -18 0 -16 5 -30 10 -30 6 0 10 5 10 10 0 14 38 12
43 -2 2 -8 8 -9 13 -4 5 5 4 11 -3 13 -15 5 -17 43 -3 43 6 0 10 -4 10 -10 0
-14 38 -12 43 3 2 7 8 8 13 3 5 -5 4 -11 -3 -13 -20 -7 -15 -23 7 -23 16 0 20
7 20 30 0 23 4 30 20 30 16 0 20 -7 20 -30 0 -23 4 -30 20 -30 22 0 27 16 8
23 -8 2 -9 8 -4 13 5 5 11 4 13 -3 5 -15 43 -17 43 -3 0 14 38 12 43 -2 3 -9
11 -6 24 10 21 22 53 30 53 12 0 -5 -9 -10 -20 -10 -13 0 -20 -7 -20 -19 0
-11 -6 -21 -12 -24 -8 -2 -9 -8 -4 -13 5 -5 11 -4 13 4 3 6 12 12 22 12 9 0
23 9 31 20 15 21 50 28 50 10 0 -5 18 -10 40 -10 33 0 40 -3 40 -20 0 -11 5
-20 10 -20 6 0 10 14 10 30 0 23 5 30 19 30 11 0 21 -6 24 -12 2 -7 8 -9 13
-5 5 4 2 12 -6 17 -8 5 -11 12 -7 16 4 4 15 -3 26 -14 19 -23 51 -30 51 -12 0
6 5 10 10 10 6 0 10 -9 10 -20 0 -11 5 -20 10 -20 6 0 10 9 10 20 0 27 28 26
51 -2 l19 -21 20 23 20 23 29 -32 c28 -30 61 -41 61 -21 0 6 9 10 20 10 13 0
20 7 20 20 0 22 -15 27 -23 8 -4 -10 -8 -9 -16 2 -5 8 -14 11 -18 6 -4 -5 -2
-11 5 -13 6 -3 12 -9 12 -14 0 -14 -30 -11 -46 6 -14 13 -14 17 0 30 18 18 43
19 49 3 4 -10 8 -9 16 2 8 12 13 11 29 -8 19 -22 72 -31 72 -12 0 18 55 11 70
-10 8 -11 22 -20 32 -20 24 0 23 9 -4 31 -11 11 -18 22 -13 27 4 4 10 1 12 -5
3 -8 22 -13 44 -13 37 0 39 -2 39 -30 0 -16 5 -30 10 -30 6 0 10 14 10 30 0
17 5 30 10 30 6 0 10 -9 10 -20 0 -12 7 -20 16 -20 19 0 49 28 40 38 -4 3 -11
0 -16 -8 -5 -8 -12 -11 -16 -8 -9 10 21 38 40 38 11 0 16 -9 16 -30 0 -23 4
-30 20 -30 13 0 20 7 20 20 0 22 15 27 23 8 4 -10 8 -9 17 2 9 11 13 12 17 3
2 -7 22 -13 43 -13 22 0 40 5 43 13 2 7 8 8 13 3 5 -5 4 -11 -3 -13 -15 -5
-17 -43 -3 -43 6 0 10 5 10 10 0 6 9 10 20 10 11 0 20 -4 20 -10 0 -5 5 -10
10 -10 6 0 10 7 10 16 0 19 28 49 38 40 3 -4 0 -11 -7 -16 -12 -7 -12 -11 2
-24 8 -9 21 -16 27 -16 16 0 44 29 36 38 -4 3 -11 0 -16 -8 -5 -8 -13 -11 -17
-6 -4 5 -2 11 5 13 6 3 12 13 12 24 0 27 7 24 50 -21 42 -44 70 -52 70 -20 0
22 -16 27 -23 8 -2 -7 -8 -10 -12 -6 -4 4 1 15 11 25 12 13 19 14 22 5 2 -6
17 -12 33 -12 16 0 29 -4 29 -10 0 -5 5 -10 10 -10 14 0 12 38 -2 43 -7 2 -10
8 -6 12 9 10 38 -19 38 -39 0 -9 8 -16 20 -16 11 0 20 5 20 10 0 6 17 10 38
10 26 0 42 -6 52 -20 15 -21 50 -28 50 -10 0 6 -7 10 -16 10 -15 0 -44 23 -44
34 0 3 9 6 20 6 11 0 20 -4 20 -10 0 -5 9 -10 20 -10 13 0 20 7 20 20 0 22 15
27 24 8 5 -10 7 -10 12 0 3 6 14 12 24 12 10 0 20 6 23 13 2 6 8 9 12 5 5 -5
-2 -16 -13 -27 -28 -23 -29 -51 -2 -51 11 0 20 5 20 10 0 14 38 12 43 -2 2 -8
8 -9 13 -4 5 5 4 11 -3 13 -24 9 -13 23 16 23 16 0 31 6 34 13 2 6 8 9 12 5 5
-5 -2 -16 -13 -27 -27 -23 -28 -31 -2 -31 11 0 20 5 20 10 0 6 5 10 10 10 6 0
10 -9 10 -20 0 -24 15 -27 24 -5 3 9 -1 18 -9 22 -10 3 -13 12 -10 23 3 10 1
21 -5 25 -5 3 -10 15 -10 26 0 10 -4 19 -10 19 -5 0 -10 7 -10 15 0 8 -4 23
-10 33 -5 9 -23 49 -41 87 -62 139 -89 195 -243 505 -171 344 -203 405 -330
633 -14 26 -37 66 -50 90 -13 23 -32 58 -43 77 -1140 1990 -2657 3699 -4503
5071 -429 319 -955 669 -1380 919 -69 40 -156 92 -195 115 -38 23 -101 59
-140 80 -38 21 -104 57 -145 80 -298 170 -953 494 -1300 644 -52 23 -104 46
-115 51 -78 37 -523 217 -667 271 -43 16 -115 43 -160 60 -46 17 -94 35 -108
39 -14 5 -90 32 -170 60 -603 214 -1400 436 -2005 560 -138 28 -309 61 -360
71 -150 27 -173 31 -215 39 -25 5 -76 14 -115 20 -38 6 -95 15 -125 20 -30 5
-84 14 -120 19 -60 9 -93 14 -285 40 -68 10 -156 21 -327 41 -345 40 -813 76
-1233 95 -193 9 -1091 13 -1155 5z m-14310 -9780 c0 -5 -4 -10 -10 -10 -5 0
-10 5 -10 10 0 6 5 10 10 10 6 0 10 -4 10 -10z m2800 0 c0 -5 -4 -10 -10 -10
-5 0 -10 5 -10 10 0 6 5 10 10 10 6 0 10 -4 10 -10z m19540 0 c0 -5 -4 -10
-10 -10 -5 0 -10 5 -10 10 0 6 5 10 10 10 6 0 10 -4 10 -10z m-22520 -20 c0
-5 -9 -10 -20 -10 -11 0 -20 5 -20 10 0 6 9 10 20 10 11 0 20 -4 20 -10z m360
0 c0 -5 -4 -10 -10 -10 -5 0 -10 5 -10 10 0 6 5 10 10 10 6 0 10 -4 10 -10z
m780 -10 c0 -24 -6 -25 -26 -6 -19 20 -18 26 6 26 13 0 20 -7 20 -20z m2280 4
c0 -15 -23 -44 -34 -44 -11 0 -6 31 7 45 16 19 27 19 27 -1z m1340 6 c0 -5 -4
-10 -10 -10 -5 0 -10 5 -10 10 0 6 5 10 10 10 6 0 10 -4 10 -10z m60 0 c0 -5
-4 -10 -10 -10 -5 0 -10 5 -10 10 0 6 5 10 10 10 6 0 10 -4 10 -10z m240 0 c0
-5 -9 -10 -20 -10 -11 0 -20 5 -20 10 0 6 9 10 20 10 11 0 20 -4 20 -10z m900
-10 c0 -11 -4 -20 -10 -20 -5 0 -10 9 -10 20 0 11 5 20 10 20 6 0 10 -9 10
-20z m340 10 c0 -5 -4 -10 -10 -10 -5 0 -10 5 -10 10 0 6 5 10 10 10 6 0 10
-4 10 -10z m100 0 c0 -5 -4 -10 -10 -10 -5 0 -10 5 -10 10 0 6 5 10 10 10 6 0
10 -4 10 -10z m240 0 c0 -5 -4 -10 -10 -10 -5 0 -10 5 -10 10 0 6 5 10 10 10
6 0 10 -4 10 -10z m640 0 c0 -5 -4 -10 -10 -10 -5 0 -10 5 -10 10 0 6 5 10 10
10 6 0 10 -4 10 -10z m160 1 c0 -5 -6 -12 -12 -14 -10 -4 -9 -8 2 -16 8 -5 11
-13 7 -18 -5 -4 -12 -1 -18 7 -8 13 -10 13 -18 1 -8 -12 -12 -12 -26 3 -10 9
-14 20 -10 24 4 4 10 1 12 -5 7 -20 23 -15 23 7 0 13 7 20 20 20 11 0 20 -4
20 -9z m280 -1 c0 -5 -4 -10 -10 -10 -5 0 -10 5 -10 10 0 6 5 10 10 10 6 0 10
-4 10 -10z m40 0 c0 -5 -4 -10 -10 -10 -5 0 -10 5 -10 10 0 6 5 10 10 10 6 0
10 -4 10 -10z m11700 0 c0 -5 -4 -10 -10 -10 -5 0 -10 5 -10 10 0 6 5 10 10
10 6 0 10 -4 10 -10z m640 0 c0 -5 -4 -10 -10 -10 -5 0 -10 5 -10 10 0 6 5 10
10 10 6 0 10 -4 10 -10z m160 1 c0 -5 -6 -12 -12 -14 -10 -4 -9 -8 2 -16 8 -5
11 -13 7 -18 -5 -4 -12 -1 -18 7 -8 13 -10 13 -18 1 -8 -12 -12 -12 -26 3 -10
9 -14 20 -10 24 4 4 10 1 12 -5 7 -20 23 -15 23 7 0 13 7 20 20 20 11 0 20 -4
20 -9z m280 -1 c0 -5 -4 -10 -10 -10 -5 0 -10 5 -10 10 0 6 5 10 10 10 6 0 10
-4 10 -10z m1840 0 c0 -5 -4 -10 -10 -10 -5 0 -10 5 -10 10 0 6 5 10 10 10 6
0 10 -4 10 -10z m40 0 c0 -5 -4 -10 -10 -10 -5 0 -10 5 -10 10 0 6 5 10 10 10
6 0 10 -4 10 -10z m40 0 c0 -5 -4 -10 -10 -10 -5 0 -10 5 -10 10 0 6 5 10 10
10 6 0 10 -4 10 -10z m840 -10 c0 -11 -4 -20 -10 -20 -5 0 -10 9 -10 20 0 11
5 20 10 20 6 0 10 -9 10 -20z m440 10 c0 -5 -4 -10 -10 -10 -5 0 -10 5 -10 10
0 6 5 10 10 10 6 0 10 -4 10 -10z m140 0 c0 -5 -4 -10 -10 -10 -5 0 -10 5 -10
10 0 6 5 10 10 10 6 0 10 -4 10 -10z m40 -10 c0 -11 5 -20 10 -20 6 0 10 -4
10 -10 0 -5 -9 -10 -20 -10 -16 0 -20 7 -20 30 0 17 5 30 10 30 6 0 10 -9 10
-20z m60 10 c0 -5 -9 -10 -20 -10 -11 0 -20 5 -20 10 0 6 9 10 20 10 11 0 20
-4 20 -10z m220 -10 c0 -11 -4 -20 -10 -20 -5 0 -10 9 -10 20 0 11 5 20 10 20
6 0 10 -9 10 -20z m40 10 c0 -5 -4 -10 -10 -10 -5 0 -10 5 -10 10 0 6 5 10 10
10 6 0 10 -4 10 -10z m580 -10 c0 -11 -4 -20 -10 -20 -5 0 -10 9 -10 20 0 11
5 20 10 20 6 0 10 -9 10 -20z m580 10 c0 -5 -9 -10 -20 -10 -11 0 -20 5 -20
10 0 6 9 10 20 10 11 0 20 -4 20 -10z m420 0 c0 -5 -9 -10 -20 -10 -11 0 -20
5 -20 10 0 6 9 10 20 10 11 0 20 -4 20 -10z m480 0 c0 -5 -4 -10 -10 -10 -5 0
-10 5 -10 10 0 6 5 10 10 10 6 0 10 -4 10 -10z m140 0 c0 -5 9 -10 20 -10 11
0 20 -4 20 -10 0 -5 -13 -10 -30 -10 -23 0 -30 4 -30 20 0 11 5 20 10 20 6 0
10 -4 10 -10z m120 0 c0 -5 -4 -10 -10 -10 -5 0 -10 5 -10 10 0 6 5 10 10 10
6 0 10 -4 10 -10z m260 0 c0 -5 -4 -10 -10 -10 -5 0 -10 5 -10 10 0 6 5 10 10
10 6 0 10 -4 10 -10z m86 -4 c19 -20 18 -26 -6 -26 -13 0 -20 7 -20 20 0 24 6
25 26 6z m134 4 c0 -5 -4 -10 -10 -10 -5 0 -10 5 -10 10 0 6 5 10 10 10 6 0
10 -4 10 -10z m220 0 c0 -5 -9 -10 -20 -10 -11 0 -20 5 -20 10 0 6 9 10 20 10
11 0 20 -4 20 -10z m320 -20 c0 -16 -4 -30 -10 -30 -5 0 -10 14 -10 30 0 17 5
30 10 30 6 0 10 -13 10 -30z m100 20 c0 -5 -4 -10 -10 -10 -5 0 -10 5 -10 10
0 6 5 10 10 10 6 0 10 -4 10 -10z m1520 0 c0 -5 -4 -10 -10 -10 -5 0 -10 5
-10 10 0 6 5 10 10 10 6 0 10 -4 10 -10z m360 0 c0 -5 -4 -10 -10 -10 -5 0
-10 5 -10 10 0 6 5 10 10 10 6 0 10 -4 10 -10z m-29240 -30 c0 -11 -4 -20 -10
-20 -5 0 -10 9 -10 20 0 11 5 20 10 20 6 0 10 -9 10 -20z m1480 10 c0 -5 -4
-10 -10 -10 -5 0 -10 5 -10 10 0 6 5 10 10 10 6 0 10 -4 10 -10z m1820 0 c0
-5 -4 -10 -10 -10 -5 0 -10 5 -10 10 0 6 5 10 10 10 6 0 10 -4 10 -10z m15900
-5 c0 -8 -4 -15 -10 -15 -5 0 -10 7 -10 15 0 8 5 15 10 15 6 0 10 -7 10 -15z
m1780 5 c0 -5 -4 -10 -10 -10 -5 0 -10 5 -10 10 0 6 5 10 10 10 6 0 10 -4 10
-10z m40 0 c0 -5 -4 -10 -10 -10 -5 0 -10 5 -10 10 0 6 5 10 10 10 6 0 10 -4
10 -10z m760 0 c0 -5 -4 -10 -10 -10 -5 0 -10 5 -10 10 0 6 5 10 10 10 6 0 10
-4 10 -10z m4420 0 c0 -5 -4 -10 -10 -10 -5 0 -10 5 -10 10 0 6 5 10 10 10 6
0 10 -4 10 -10z m2000 0 c0 -5 -4 -10 -10 -10 -5 0 -10 5 -10 10 0 6 5 10 10
10 6 0 10 -4 10 -10z m-25200 -20 c0 -5 -4 -10 -10 -10 -5 0 -10 5 -10 10 0 6
5 10 10 10 6 0 10 -4 10 -10z m19360 0 c0 -5 -4 -10 -10 -10 -5 0 -10 5 -10
10 0 6 5 10 10 10 6 0 10 -4 10 -10z m-3100 -60 c0 -5 -4 -10 -10 -10 -5 0
-10 5 -10 10 0 6 5 10 10 10 6 0 10 -4 10 -10z"/>
<path d="M2260 23170 c0 -5 5 -10 10 -10 6 0 10 5 10 10 0 6 -4 10 -10 10 -5
0 -10 -4 -10 -10z"/>
<path d="M4340 23170 c0 -5 -9 -10 -20 -10 -24 0 -25 -6 -6 -26 20 -19 26 -18
26 6 0 22 16 27 23 8 2 -7 8 -10 12 -6 4 4 0 14 -8 23 -18 17 -27 19 -27 5z"/>
<path d="M4520 23160 c0 -11 5 -20 10 -20 6 0 10 9 10 20 0 11 -4 20 -10 20
-5 0 -10 -9 -10 -20z"/>
<path d="M4560 23174 c0 -11 29 -34 44 -34 20 0 20 7 2 26 -14 14 -46 20 -46
8z"/>
<path d="M6820 23170 c0 -5 5 -10 10 -10 6 0 10 5 10 10 0 6 -4 10 -10 10 -5
0 -10 -4 -10 -10z"/>
<path d="M8660 23160 c0 -16 7 -20 30 -20 23 0 30 4 30 20 0 22 -15 27 -24 8
-5 -10 -7 -10 -12 0 -9 19 -24 14 -24 -8z"/>
<path d="M9100 23170 c0 -5 5 -10 10 -10 6 0 10 -9 10 -20 0 -11 5 -20 10 -20
15 0 12 29 -4 46 -17 16 -26 18 -26 4z"/>
<path d="M21480 23160 c0 -16 7 -20 30 -20 23 0 30 4 30 20 0 22 -15 27 -24 8
-5 -10 -7 -10 -12 0 -9 19 -24 14 -24 -8z"/>
<path d="M21920 23170 c0 -5 5 -10 10 -10 6 0 10 -9 10 -20 0 -11 5 -20 10
-20 15 0 12 29 -4 46 -17 16 -26 18 -26 4z"/>
<path d="M23360 23164 c0 -20 29 -49 38 -39 4 4 1 10 -5 12 -7 3 -13 13 -13
24 0 10 -4 19 -10 19 -5 0 -10 -7 -10 -16z"/>
<path d="M25860 23171 c0 -5 6 -12 13 -14 9 -4 8 -8 -3 -16 -8 -5 -11 -13 -8
-17 10 -9 38 21 38 40 0 9 -8 16 -20 16 -11 0 -20 -4 -20 -9z"/>
<path d="M27720 23160 c0 -11 5 -20 10 -20 6 0 10 9 10 20 0 11 -4 20 -10 20
-5 0 -10 -9 -10 -20z"/>
<path d="M3480 23154 c0 -10 31 -36 37 -31 3 3 -2 13 -10 22 -16 15 -27 19
-27 9z"/>
<path d="M5460 23140 c0 -11 5 -20 10 -20 6 0 10 9 10 20 0 11 -4 20 -10 20
-5 0 -10 -9 -10 -20z"/>
<path d="M6000 23154 c0 -7 27 -34 34 -34 3 0 6 9 6 20 0 13 -7 20 -20 20 -11
0 -20 -3 -20 -6z"/>
<path d="M7320 23150 c0 -5 5 -10 10 -10 6 0 10 5 10 10 0 6 -4 10 -10 10 -5
0 -10 -4 -10 -10z"/>
<path d="M8520 23150 c0 -5 9 -10 20 -10 11 0 20 5 20 10 0 6 -9 10 -20 10
-11 0 -20 -4 -20 -10z"/>
<path d="M8580 23140 c0 -11 5 -20 10 -20 6 0 10 9 10 20 0 11 -4 20 -10 20
-5 0 -10 -9 -10 -20z"/>
<path d="M21340 23150 c0 -5 9 -10 20 -10 11 0 20 5 20 10 0 6 -9 10 -20 10
-11 0 -20 -4 -20 -10z"/>
<path d="M21400 23140 c0 -11 5 -20 10 -20 6 0 10 9 10 20 0 11 -4 20 -10 20
-5 0 -10 -9 -10 -20z"/>
<path d="M23320 23140 c0 -11 5 -20 10 -20 6 0 10 9 10 20 0 11 -4 20 -10 20
-5 0 -10 -9 -10 -20z"/>
<path d="M26040 23140 c0 -11 5 -20 10 -20 6 0 10 9 10 20 0 11 -4 20 -10 20
-5 0 -10 -9 -10 -20z"/>
<path d="M26420 23150 c0 -5 5 -10 10 -10 6 0 10 5 10 10 0 6 -4 10 -10 10 -5
0 -10 -4 -10 -10z"/>
<path d="M26500 23140 c0 -24 6 -25 26 -6 19 20 18 26 -6 26 -13 0 -20 -7 -20
-20z"/>
<path d="M26980 23150 c0 -5 13 -10 29 -10 16 0 32 -6 34 -12 4 -10 8 -9 16 2
10 13 12 13 20 0 6 -8 13 -11 17 -8 3 4 -1 15 -11 24 -14 15 -18 15 -27 3 -7
-11 -11 -11 -15 -1 -6 14 -63 17 -63 2z"/>
<path d="M28880 23150 c0 -5 5 -10 10 -10 6 0 10 5 10 10 0 6 -4 10 -10 10 -5
0 -10 -4 -10 -10z"/>
<path d="M29120 23154 c0 -10 31 -36 37 -31 3 3 -2 13 -10 22 -16 15 -27 19
-27 9z"/>
<path d="M30280 23150 c0 -5 5 -10 10 -10 6 0 10 5 10 10 0 6 -4 10 -10 10 -5
0 -10 -4 -10 -10z"/>
<path d="M30400 23140 c0 -11 5 -20 10 -20 6 0 10 9 10 20 0 11 -4 20 -10 20
-5 0 -10 -9 -10 -20z"/>
<path d="M2000 23130 c0 -5 5 -10 10 -10 6 0 10 5 10 10 0 6 -4 10 -10 10 -5
0 -10 -4 -10 -10z"/>
<path d="M2060 23130 c0 -5 5 -10 10 -10 6 0 10 5 10 10 0 6 -4 10 -10 10 -5
0 -10 -4 -10 -10z"/>
<path d="M2660 23130 c0 -5 5 -10 10 -10 6 0 10 5 10 10 0 6 -4 10 -10 10 -5
0 -10 -4 -10 -10z"/>
<path d="M2720 23130 c0 -5 5 -10 10 -10 6 0 10 5 10 10 0 6 -4 10 -10 10 -5
0 -10 -4 -10 -10z"/>
<path d="M3620 23130 c0 -5 5 -10 10 -10 6 0 10 5 10 10 0 6 -4 10 -10 10 -5
0 -10 -4 -10 -10z"/>
<path d="M3860 23130 c0 -5 5 -10 10 -10 6 0 10 5 10 10 0 6 -4 10 -10 10 -5
0 -10 -4 -10 -10z"/>
<path d="M3980 23130 c0 -5 5 -10 10 -10 6 0 10 5 10 10 0 6 -4 10 -10 10 -5
0 -10 -4 -10 -10z"/>
<path d="M4200 23130 c0 -5 14 -10 30 -10 17 0 30 5 30 10 0 6 -13 10 -30 10
-16 0 -30 -4 -30 -10z"/>
<path d="M5180 23130 c0 -5 14 -10 30 -10 17 0 30 5 30 10 0 6 -13 10 -30 10
-16 0 -30 -4 -30 -10z"/>
<path d="M5500 23130 c0 -5 5 -10 10 -10 6 0 10 5 10 10 0 6 -4 10 -10 10 -5
0 -10 -4 -10 -10z"/>
<path d="M6540 23130 c0 -5 5 -10 10 -10 6 0 10 5 10 10 0 6 -4 10 -10 10 -5
0 -10 -4 -10 -10z"/>
<path d="M7160 23130 c0 -5 5 -10 10 -10 6 0 10 5 10 10 0 6 -4 10 -10 10 -5
0 -10 -4 -10 -10z"/>
<path d="M7740 23130 c0 -5 5 -10 10 -10 6 0 10 5 10 10 0 6 -4 10 -10 10 -5
0 -10 -4 -10 -10z"/>
<path d="M9000 23130 c0 -5 5 -10 10 -10 6 0 10 5 10 10 0 6 -4 10 -10 10 -5
0 -10 -4 -10 -10z"/>
<path d="M21820 23130 c0 -5 5 -10 10 -10 6 0 10 5 10 10 0 6 -4 10 -10 10 -5
0 -10 -4 -10 -10z"/>
<path d="M22300 23130 c0 -5 5 -10 10 -10 6 0 10 5 10 10 0 6 -4 10 -10 10 -5
0 -10 -4 -10 -10z"/>
<path d="M23080 23130 c0 -5 5 -10 10 -10 6 0 10 5 10 10 0 6 -4 10 -10 10 -5
0 -10 -4 -10 -10z"/>
<path d="M23280 23130 c0 -5 5 -10 10 -10 6 0 10 5 10 10 0 6 -4 10 -10 10 -5
0 -10 -4 -10 -10z"/>
<path d="M23520 23130 c0 -5 5 -10 10 -10 6 0 10 5 10 10 0 6 -4 10 -10 10 -5
0 -10 -4 -10 -10z"/>
<path d="M23960 23130 c0 -5 5 -10 10 -10 6 0 10 5 10 10 0 6 -4 10 -10 10 -5
0 -10 -4 -10 -10z"/>
<path d="M24840 23130 c0 -5 5 -10 10 -10 6 0 10 5 10 10 0 6 -4 10 -10 10 -5
0 -10 -4 -10 -10z"/>
<path d="M26000 23130 c0 -5 5 -10 10 -10 6 0 10 5 10 10 0 6 -4 10 -10 10 -5
0 -10 -4 -10 -10z"/>
<path d="M26080 23130 c0 -5 5 -10 10 -10 6 0 10 5 10 10 0 6 -4 10 -10 10 -5
0 -10 -4 -10 -10z"/>
<path d="M26640 23130 c0 -5 5 -10 10 -10 6 0 10 5 10 10 0 6 -4 10 -10 10 -5
0 -10 -4 -10 -10z"/>
<path d="M26860 23130 c0 -5 5 -10 10 -10 6 0 10 5 10 10 0 6 -4 10 -10 10 -5
0 -10 -4 -10 -10z"/>
<path d="M28980 23130 c0 -5 5 -10 10 -10 6 0 10 5 10 10 0 6 -4 10 -10 10 -5
0 -10 -4 -10 -10z"/>
<path d="M29700 23130 c0 -5 5 -10 10 -10 6 0 10 5 10 10 0 6 -4 10 -10 10 -5
0 -10 -4 -10 -10z"/>
<path d="M29840 23130 c0 -5 5 -10 10 -10 6 0 10 5 10 10 0 6 -4 10 -10 10 -5
0 -10 -4 -10 -10z"/>
<path d="M29880 23130 c0 -5 5 -10 10 -10 6 0 10 5 10 10 0 6 -4 10 -10 10 -5
0 -10 -4 -10 -10z"/>
<path d="M30040 23130 c0 -5 5 -10 10 -10 6 0 10 5 10 10 0 6 -4 10 -10 10 -5
0 -10 -4 -10 -10z"/>
<path d="M31340 23130 c0 -5 5 -10 10 -10 6 0 10 5 10 10 0 6 -4 10 -10 10 -5
0 -10 -4 -10 -10z"/>
<path d="M21260 22950 c0 -5 5 -10 11 -10 5 0 7 5 4 10 -3 6 -8 10 -11 10 -2
0 -4 -4 -4 -10z"/>
<path d="M9400 22930 c0 -5 5 -10 10 -10 6 0 10 5 10 10 0 6 -4 10 -10 10 -5
0 -10 -4 -10 -10z"/>
<path d="M21340 22930 c0 -5 5 -10 10 -10 6 0 10 5 10 10 0 6 -4 10 -10 10 -5
0 -10 -4 -10 -10z"/>
<path d="M21668 22495 c13 -25 52 -62 52 -48 0 5 -14 22 -31 39 -23 21 -29 23
-21 9z"/>
<path d="M21740 22421 c0 -6 5 -13 10 -16 6 -3 10 1 10 9 0 9 -4 16 -10 16 -5
0 -10 -4 -10 -9z"/>
<path d="M21780 22390 c0 -6 -5 -8 -12 -4 -6 4 13 -22 43 -57 30 -36 74 -90
98 -122 24 -31 47 -54 53 -51 5 3 -14 30 -42 60 -28 30 -49 58 -46 62 3 5 -15
28 -39 52 -24 24 -42 47 -39 51 2 4 0 10 -6 14 -5 3 -10 1 -10 -5z"/>
<path d="M21980 22142 c0 -7 -4 -11 -9 -7 -5 3 26 -48 69 -112 216 -326 369
-656 488 -1053 177 -586 250 -1217 212 -1825 -66 -1068 -404 -2001 -985 -2725
-187 -233 -482 -518 -729 -703 -343 -258 -776 -476 -1226 -618 -74 -23 -136
-43 -138 -44 -2 -2 143 -251 399 -683 39 -67 57 -89 46 -59 -4 11 -1 20 8 24
9 3 14 10 13 17 -2 6 1 11 5 11 5 0 14 10 20 21 12 21 119 114 132 114 3 0 23
11 43 25 20 14 45 25 55 25 10 0 15 5 12 10 -6 9 8 14 28 11 4 0 7 4 7 10 0 5
4 8 9 5 5 -3 25 5 45 19 20 13 36 22 36 18 0 -3 8 1 18 9 9 8 59 37 110 63 50
27 92 52 92 56 0 4 9 10 19 14 26 8 198 121 230 151 14 13 29 24 32 24 3 0 22
12 41 28 19 15 50 38 68 52 19 14 41 33 49 43 9 9 21 17 28 17 6 0 16 6 20 13
4 7 20 22 35 34 30 22 201 177 227 205 144 152 229 245 253 278 16 22 34 40
39 40 5 0 13 8 16 18 6 14 30 47 109 145 8 9 14 20 14 23 0 2 18 29 40 58 22
29 40 56 40 60 0 4 15 25 33 47 19 21 44 59 57 84 13 25 28 45 33 45 6 0 8 3
4 6 -3 3 10 30 29 59 19 30 34 58 34 63 0 5 7 15 15 22 8 7 12 16 9 21 -3 5
-1 9 5 9 5 0 13 10 17 23 4 12 10 24 13 27 10 7 194 383 226 460 15 36 32 76
38 90 6 14 11 27 12 30 0 3 6 14 12 25 6 11 27 70 48 130 21 61 43 124 50 140
8 17 21 59 30 95 9 35 21 73 27 83 5 10 10 28 12 40 1 12 5 29 8 37 15 36 39
120 53 185 9 39 23 97 31 130 8 33 17 78 20 100 3 22 12 64 20 94 8 31 14 67
14 82 0 15 4 39 9 52 9 24 42 229 47 297 2 19 8 80 14 135 25 215 32 663 15
890 -2 28 -6 91 -10 140 -5 81 -12 127 -45 325 -14 82 -23 162 -23 193 0 15
-4 27 -8 27 -5 0 -9 13 -9 29 0 16 -14 86 -30 154 -17 69 -32 140 -34 158 -2
26 -65 247 -102 359 -3 8 -5 16 -5 17 0 2 -7 19 -15 38 -8 20 -12 41 -8 47 4
7 3 8 -4 4 -7 -4 -12 0 -13 11 -2 33 -4 39 -25 89 -12 27 -38 87 -59 134 -20
47 -42 92 -49 100 -16 18 -30 68 -27 90 2 8 0 12 -5 8 -9 -9 -37 29 -30 40 3
5 -4 21 -15 38 -10 16 -19 35 -19 43 0 8 -26 54 -57 103 -111 171 -123 190
-123 200 0 5 -21 37 -47 71 -27 34 -48 65 -48 68 0 3 -25 39 -55 80 -30 41
-54 76 -53 79 1 3 -7 17 -18 30 -10 14 -19 19 -19 12z"/>
<path d="M10004 15604 c-4 -22 -20 -70 -35 -108 -16 -38 -26 -73 -23 -77 3 -5
-2 -21 -9 -36 -8 -15 -19 -55 -26 -88 -6 -33 -16 -80 -21 -105 -6 -25 -13 -54
-15 -65 -5 -21 -42 -273 -50 -335 -2 -19 -9 -73 -14 -120 -6 -47 -14 -166 -17
-265 -3 -99 -7 -196 -9 -215 -4 -40 -24 -557 -30 -765 -4 -143 -14 -345 -20
-425 -2 -25 -6 -142 -9 -259 -4 -118 -10 -217 -15 -220 -4 -4 -11 -100 -15
-216 -4 -115 -11 -226 -16 -245 -4 -19 -11 -125 -14 -234 -4 -110 -10 -202
-15 -205 -5 -4 -12 -53 -15 -111 -4 -58 -12 -168 -18 -245 -7 -77 -12 -159
-12 -182 0 -24 -4 -43 -9 -43 -5 0 -7 -6 -4 -13 3 -7 -1 -53 -9 -103 -7 -49
-14 -111 -14 -139 0 -31 -4 -45 -9 -37 -4 8 -10 -40 -14 -114 -4 -88 -10 -130
-19 -136 -10 -6 -10 -10 2 -17 12 -8 11 -13 -7 -28 -18 -16 -23 -38 -34 -153
-8 -83 -18 -140 -26 -148 -12 -12 -18 -52 -15 -94 1 -10 -3 -18 -8 -18 -6 0
-10 -15 -10 -32 0 -25 -3 -29 -10 -18 -8 12 -10 11 -10 -7 0 -12 6 -24 13 -27
10 -5 10 -7 0 -12 -7 -3 -13 -14 -13 -25 0 -14 -7 -19 -26 -19 -24 0 -26 -3
-20 -30 5 -27 3 -30 -18 -30 -14 0 -26 -6 -29 -12 -2 -7 -8 -9 -13 -5 -5 4 -2
12 5 17 12 7 11 11 -3 25 -16 16 -18 16 -37 -6 -17 -19 -22 -21 -29 -9 -5 8
-13 11 -17 6 -4 -5 -2 -11 5 -13 19 -7 14 -23 -8 -23 -13 0 -20 7 -20 20 0 11
-4 20 -10 20 -5 0 -10 -4 -10 -10 0 -5 -13 -10 -30 -10 -16 0 -30 5 -30 10 0
6 5 10 10 10 6 0 10 9 10 20 0 11 -4 20 -10 20 -5 0 -10 -4 -10 -10 0 -5 -13
-10 -30 -10 -35 0 -38 -10 -10 -30 11 -8 20 -18 20 -22 0 -4 -9 -8 -20 -8 -11
0 -20 5 -20 10 0 6 -9 10 -20 10 -22 0 -27 16 -7 23 6 2 9 8 5 12 -4 4 -21 -6
-37 -24 -28 -30 -61 -41 -61 -21 0 6 -22 10 -50 10 -27 0 -50 5 -50 10 0 6 -9
10 -20 10 -11 0 -20 5 -20 10 0 14 -37 12 -43 -2 -4 -10 -8 -9 -16 2 -10 13
-12 13 -22 0 -8 -11 -12 -12 -16 -2 -7 17 -51 15 -70 -4 -14 -13 -14 -17 -2
-24 7 -5 10 -12 7 -16 -4 -4 -22 8 -39 27 -20 21 -34 29 -36 22 -3 -9 -25 -13
-64 -13 -52 0 -59 -2 -59 -20 0 -11 -4 -20 -10 -20 -18 0 -11 32 12 51 11 11
18 22 14 26 -4 4 -11 1 -17 -7 -8 -13 -10 -13 -20 0 -8 11 -12 12 -16 3 -2 -7
-13 -13 -24 -13 -12 0 -19 -7 -19 -20 0 -22 16 -27 23 -7 2 6 8 9 12 5 4 -4
-1 -15 -11 -25 -12 -13 -19 -14 -22 -5 -2 7 -21 12 -43 12 -21 0 -39 5 -39 10
0 15 -77 12 -83 -2 -2 -8 -8 -9 -13 -4 -5 5 -4 11 4 13 26 10 10 23 -28 23
-22 0 -40 -4 -40 -10 0 -5 -9 -10 -20 -10 -22 0 -27 16 -7 23 6 2 9 8 5 12 -9
10 -38 -19 -38 -39 0 -9 -4 -16 -10 -16 -5 0 -10 9 -10 20 0 27 -7 25 -40 -10
-33 -35 -40 -37 -40 -10 0 13 7 20 20 20 13 0 20 7 20 20 0 26 -12 26 -30 0
-8 -11 -22 -20 -32 -20 -10 0 -18 -4 -18 -10 0 -5 5 -10 10 -10 6 0 10 -4 10
-10 0 -5 -13 -10 -30 -10 -23 0 -30 5 -30 19 0 11 6 21 13 24 6 2 9 8 5 12 -5
5 -16 -2 -27 -13 -23 -27 -31 -28 -31 -2 0 22 -16 27 -23 8 -3 -9 -11 -5 -25
11 -19 21 -23 22 -37 8 -8 -9 -15 -23 -15 -31 0 -11 -9 -16 -30 -16 -16 0 -30
5 -30 10 0 6 9 10 20 10 11 0 20 5 20 10 0 19 -31 10 -57 -16 -21 -21 -23 -28
-12 -36 11 -8 10 -9 -4 -4 -10 3 -21 6 -23 6 -2 0 -4 14 -4 30 0 17 -4 30 -10
30 -5 0 -10 -13 -10 -30 0 -23 -4 -30 -20 -30 -13 0 -20 7 -20 20 0 13 -7 20
-20 20 -22 0 -27 -16 -7 -23 7 -2 8 -8 3 -13 -5 -5 -11 -4 -13 4 -6 16 -40 16
-45 0 -3 -9 -9 -8 -21 4 -19 18 -23 48 -7 48 6 0 10 5 10 10 0 6 -9 10 -20 10
-13 0 -20 -7 -20 -20 0 -11 -4 -20 -10 -20 -5 0 -10 -9 -10 -20 0 -26 -8 -25
-31 2 -11 11 -22 18 -27 13 -4 -4 -1 -10 6 -12 6 -3 12 -9 12 -14 0 -14 -30
-10 -47 6 -14 14 -13 18 8 35 12 11 19 23 15 27 -4 4 -11 1 -17 -7 -8 -13 -10
-13 -18 0 -6 8 -13 11 -18 7 -4 -5 -1 -12 6 -17 12 -7 12 -11 -2 -24 -22 -22
-27 -20 -27 9 0 14 -4 25 -10 25 -5 0 -10 -7 -10 -15 0 -8 -4 -15 -10 -15 -5
0 -10 9 -10 20 0 11 -4 20 -10 20 -5 0 -10 -13 -10 -30 0 -26 -3 -30 -29 -30
-16 0 -31 -6 -34 -12 -2 -7 -8 -10 -12 -6 -5 5 2 17 15 28 13 11 20 23 15 28
-4 4 -10 1 -12 -5 -6 -15 -83 -18 -83 -3 0 6 -9 10 -20 10 -11 0 -20 -4 -20
-10 0 -5 9 -10 20 -10 11 0 20 -4 20 -10 0 -5 -22 -10 -50 -10 -27 0 -50 5
-50 10 0 6 -4 10 -10 10 -14 0 -12 -37 3 -43 6 -3 -6 -3 -28 0 -22 3 -42 7
-44 9 -2 2 11 17 29 34 18 17 30 33 26 37 -3 3 -14 -4 -25 -15 -18 -22 -71
-31 -71 -12 0 6 -4 10 -10 10 -5 0 -10 -7 -10 -16 0 -8 -7 -23 -16 -31 -13
-14 -17 -14 -25 -2 -8 12 -10 12 -18 -1 -6 -8 -13 -11 -18 -7 -4 5 -1 13 7 18
11 8 12 12 3 16 -7 2 -13 13 -13 24 0 10 -4 19 -10 19 -5 0 -10 -4 -10 -10 0
-5 -9 -10 -20 -10 -13 0 -20 -7 -20 -20 0 -13 7 -20 20 -20 11 0 20 -4 20 -10
0 -5 -9 -10 -20 -10 -11 0 -20 5 -20 10 0 6 -9 10 -20 10 -22 0 -27 16 -7 23
6 2 8 8 4 13 -4 5 -12 2 -18 -6 -8 -13 -10 -13 -18 0 -8 12 -13 11 -29 -8 -19
-22 -72 -31 -72 -12 0 6 7 10 16 10 20 0 49 29 39 38 -4 4 -10 1 -12 -5 -3 -7
-17 -13 -33 -13 -16 0 -30 6 -33 13 -3 8 -11 5 -24 -10 -28 -32 -98 -32 -124
-1 -11 11 -22 18 -27 13 -4 -4 -1 -10 6 -12 14 -5 16 -43 2 -43 -5 0 -10 5
-10 10 0 6 -8 10 -18 10 -10 0 -24 9 -32 20 -15 21 -50 28 -50 10 0 -5 -9 -10
-20 -10 -26 0 -25 -8 2 -31 11 -11 18 -22 14 -26 -4 -4 -12 -1 -17 7 -8 11
-12 12 -16 3 -8 -20 -23 -15 -23 7 0 13 -7 20 -20 20 -13 0 -20 -7 -20 -20 0
-11 -4 -20 -10 -20 -5 0 -10 7 -10 16 0 8 -6 22 -14 30 -17 16 -46 19 -46 4 0
-5 -4 -10 -10 -10 -5 0 -10 9 -10 20 0 11 -4 20 -10 20 -5 0 -10 -9 -10 -20 0
-22 -16 -27 -23 -7 -2 7 -8 8 -13 3 -5 -5 -4 -11 4 -13 12 -5 18 -43 6 -43 -3
0 -19 14 -34 30 -27 29 -80 42 -80 20 0 -15 -77 -12 -84 3 -5 10 -7 10 -12 0
-9 -20 -24 -15 -24 7 0 11 -4 20 -10 20 -5 0 -10 -13 -10 -30 0 -16 -4 -30
-10 -30 -5 0 -10 9 -10 20 0 27 -7 25 -43 -12 -19 -21 -32 -28 -34 -20 -3 6
-13 12 -24 12 -12 0 -19 7 -19 20 0 13 -7 20 -20 20 -11 0 -20 -4 -20 -10 0
-5 5 -10 10 -10 6 0 10 -4 10 -10 0 -5 -13 -10 -30 -10 -30 0 -41 14 -17 23 7
2 8 8 3 13 -5 5 -11 4 -13 -3 -3 -7 -18 -13 -34 -13 -16 0 -29 -4 -29 -10 0
-20 -33 -9 -61 21 -16 18 -32 29 -36 25 -3 -3 4 -14 15 -25 27 -23 28 -31 2
-31 -11 0 -20 5 -20 10 0 6 -4 10 -10 10 -5 0 -10 -9 -10 -20 0 -11 -4 -20
-10 -20 -5 0 -10 14 -10 30 0 26 -3 30 -29 30 -16 0 -31 6 -34 13 -2 6 -8 9
-12 5 -5 -5 2 -17 14 -28 21 -17 22 -21 8 -35 -21 -20 -27 -19 -27 5 0 13 -7
20 -20 20 -11 0 -20 -4 -20 -10 0 -5 -9 -10 -20 -10 -13 0 -20 7 -20 20 0 22
16 27 22 8 3 -9 10 -8 22 5 10 10 15 21 12 25 -4 3 -11 0 -17 -8 -8 -13 -10
-13 -18 0 -8 12 -13 11 -30 -9 l-21 -24 -21 24 c-15 16 -23 20 -26 12 -3 -7
-13 -13 -24 -13 -12 0 -19 -7 -19 -20 0 -26 -12 -26 -30 0 -18 26 -30 26 -30
0 0 -26 -8 -25 -31 2 -11 11 -22 18 -27 13 -4 -4 -1 -10 6 -12 23 -9 12 -23
-18 -23 -16 0 -30 5 -30 10 0 6 5 10 10 10 6 0 10 5 10 10 0 15 -29 12 -46 -4
-8 -8 -14 -22 -14 -30 0 -19 -16 -21 -23 -3 -4 9 -8 9 -15 -2 -9 -12 -13 -12
-26 2 -23 22 -20 27 14 27 17 0 30 5 30 10 0 6 -13 10 -30 10 -16 0 -30 -4
-30 -10 0 -14 -38 -12 -43 3 -3 8 -11 5 -24 -10 -16 -18 -31 -23 -67 -23 -43
0 -62 13 -33 23 7 2 8 8 3 13 -5 5 -11 4 -13 -3 -3 -7 -13 -13 -23 -13 -10 0
-20 6 -23 13 -2 7 -8 8 -13 3 -5 -5 -4 -11 4 -13 6 -3 12 -9 12 -14 0 -14 -58
-11 -63 4 -2 6 -8 8 -13 4 -5 -4 -2 -12 6 -17 8 -5 11 -12 7 -16 -4 -4 -16 3
-27 16 l-20 23 -19 -21 c-23 -27 -31 -28 -31 -2 0 16 -7 20 -30 20 -23 0 -30
-4 -30 -20 0 -11 -3 -20 -6 -20 -10 0 -34 28 -34 40 0 17 -26 40 -44 40 -9 0
-16 -4 -16 -10 0 -5 9 -10 20 -10 13 0 20 -7 20 -20 0 -27 -28 -26 -53 3 -13
15 -21 18 -24 10 -3 -7 -18 -13 -34 -13 -16 0 -29 -4 -29 -10 0 -5 -9 -10 -20
-10 -22 0 -27 16 -7 23 6 2 9 8 5 12 -5 5 -16 -2 -27 -13 -23 -27 -31 -28 -31
-2 0 12 -7 20 -16 20 -20 0 -44 -24 -44 -44 0 -9 -8 -16 -20 -16 -16 0 -20 7
-20 30 0 28 -2 30 -40 30 -22 0 -40 -4 -40 -10 0 -18 -35 -11 -50 10 -15 21
-50 28 -50 10 0 -5 9 -10 20 -10 11 0 20 -4 20 -10 0 -5 -18 -10 -39 -10 -22
0 -41 -5 -43 -12 -3 -9 -10 -8 -23 5 -15 16 -16 20 -4 27 7 5 10 12 7 16 -4 4
-21 -7 -37 -25 -33 -36 -61 -41 -61 -11 0 13 -7 20 -20 20 -11 0 -20 -4 -20
-10 0 -5 -9 -10 -20 -10 -11 0 -20 5 -20 10 0 6 -9 10 -20 10 -11 0 -20 5 -20
10 0 6 -4 10 -10 10 -5 0 -10 -9 -10 -20 0 -13 -7 -20 -20 -20 -11 0 -20 5
-20 10 0 6 -9 10 -20 10 -11 0 -20 5 -20 10 0 16 -30 12 -48 -7 -12 -12 -13
-18 -4 -21 21 -7 14 -42 -8 -42 -13 0 -20 7 -20 20 0 11 -4 20 -10 20 -5 0
-10 -4 -10 -10 0 -5 -4 -10 -10 -10 -5 0 -10 9 -10 20 0 13 -7 20 -20 20 -11
0 -20 -4 -20 -10 0 -5 5 -10 10 -10 6 0 10 -4 10 -10 0 -5 -9 -10 -20 -10 -13
0 -20 7 -20 20 0 13 -7 20 -20 20 -13 0 -20 -7 -20 -20 0 -17 -7 -20 -40 -20
-33 0 -40 3 -40 20 0 27 -7 25 -41 -11 -16 -18 -33 -28 -37 -24 -4 4 -1 10 6
12 6 3 12 9 12 14 0 14 -58 11 -63 -3 -2 -7 -8 -10 -12 -6 -5 5 2 17 15 28 13
11 20 23 15 28 -4 4 -10 1 -12 -5 -3 -7 -13 -13 -24 -13 -10 0 -19 -4 -19 -10
0 -5 -13 -10 -30 -10 -23 0 -30 4 -30 20 0 11 -4 20 -10 20 -18 0 -11 -32 12
-51 11 -11 18 -22 13 -27 -4 -4 -10 -1 -12 6 -3 6 -18 12 -34 12 -22 0 -29 5
-29 20 0 11 5 20 10 20 6 0 10 5 10 10 0 14 -37 12 -44 -2 -5 -10 -7 -10 -12
0 -8 17 -24 15 -24 -4 0 -20 -24 -44 -44 -44 -9 0 -16 8 -16 20 0 22 -15 27
-24 8 -5 -10 -7 -10 -12 0 -3 6 -18 12 -34 12 -16 0 -31 6 -34 13 -5 10 -7 10
-12 0 -3 -7 -14 -13 -25 -13 -10 0 -19 -4 -19 -10 0 -5 9 -10 20 -10 24 0 25
-6 5 -27 -14 -14 -18 -13 -34 6 -10 12 -25 21 -34 21 -8 0 -18 6 -21 13 -5 10
-7 10 -12 0 -3 -7 -14 -13 -25 -13 -21 0 -26 -16 -6 -23 6 -2 9 -8 5 -12 -4
-4 -15 0 -24 9 -15 16 -15 18 5 35 28 25 27 31 -9 31 -16 0 -30 -4 -30 -10 0
-14 -38 -12 -43 3 -2 7 -8 8 -13 3 -5 -5 -4 -11 4 -13 28 -11 8 -23 -37 -23
-30 0 -51 -5 -54 -12 -4 -10 -8 -9 -17 2 -9 11 -13 12 -17 3 -2 -7 -13 -13
-23 -13 -10 0 -21 6 -24 13 -5 10 -7 10 -12 0 -7 -15 -44 -17 -44 -3 0 6 -9
10 -20 10 -22 0 -27 -16 -7 -23 6 -2 9 -8 5 -12 -9 -10 -58 40 -58 60 0 8 -4
15 -10 15 -5 0 -10 -13 -10 -30 0 -27 -3 -30 -30 -30 -23 0 -30 4 -30 20 0 24
-6 25 -27 4 -14 -13 -14 -17 -2 -24 7 -5 10 -13 5 -17 -5 -4 -11 -2 -13 5 -3
6 -13 12 -24 12 -10 0 -19 5 -19 10 0 6 -4 10 -10 10 -5 0 -10 -9 -10 -20 0
-11 -4 -20 -10 -20 -5 0 -10 18 -10 40 0 22 -4 40 -10 40 -5 0 -10 -9 -10 -20
0 -17 -7 -20 -50 -20 -43 0 -50 3 -50 20 0 11 -4 20 -10 20 -5 0 -10 -9 -10
-20 0 -17 -7 -20 -39 -20 -22 0 -41 5 -43 12 -3 9 -9 8 -21 -4 -22 -22 -21
-28 3 -28 11 0 20 -4 20 -10 0 -13 -37 -13 -42 1 -2 6 -23 9 -50 7 l-47 -3 16
-35 c8 -19 26 -57 38 -85 13 -27 35 -77 50 -110 73 -166 347 -721 439 -891 24
-45 63 -117 86 -160 24 -44 46 -83 50 -89 4 -5 21 -35 37 -65 279 -512 729
-1204 1148 -1765 1733 -2323 4022 -4132 6695 -5292 137 -60 578 -238 705 -285
316 -118 597 -214 865 -298 74 -23 146 -45 160 -50 50 -18 400 -117 585 -165
50 -13 124 -32 165 -43 70 -18 138 -35 350 -83 47 -11 103 -24 125 -29 65 -15
172 -37 305 -64 377 -75 588 -110 1055 -176 384 -53 880 -100 1290 -120 116
-6 282 -15 370 -20 207 -13 883 -13 1090 0 88 5 255 14 370 20 410 20 906 67
1290 120 314 44 450 65 645 99 218 38 557 105 715 141 22 5 78 18 125 29 244
56 333 78 535 131 167 44 521 144 565 160 14 5 86 27 160 50 210 65 494 162
730 248 913 334 1854 781 2710 1287 802 474 1615 1057 2325 1666 1204 1033
2219 2188 3083 3509 159 244 512 819 512 836 0 3 8 18 18 32 11 15 37 61 59
102 22 41 56 104 76 140 21 36 49 90 64 120 15 30 30 57 33 60 4 3 76 145 161
316 150 302 199 405 254 529 41 91 76 168 85 186 13 25 0 69 -20 69 -10 0 -21
6 -24 13 -5 9 -7 9 -12 0 -10 -21 -44 -16 -44 7 0 11 -4 20 -10 20 -5 0 -10
-9 -10 -20 0 -15 -7 -20 -29 -20 -16 0 -32 -6 -34 -12 -4 -10 -8 -9 -16 2 -9
13 -12 13 -20 1 -8 -12 -12 -11 -27 3 -14 15 -15 19 -3 26 7 5 10 12 7 16 -4
3 -15 -1 -24 -11 -14 -14 -15 -18 -3 -25 7 -5 10 -13 5 -17 -5 -4 -11 -2 -13
5 -6 17 -120 17 -126 0 -2 -8 -8 -9 -13 -4 -5 5 -4 11 4 13 14 5 17 43 3 43
-5 0 -12 -6 -14 -12 -4 -10 -8 -10 -15 1 -9 12 -13 12 -26 -2 -9 -8 -16 -23
-16 -31 0 -9 -8 -16 -20 -16 -13 0 -20 7 -20 20 0 17 -7 20 -39 20 -22 0 -41
5 -44 13 -2 6 -8 9 -12 5 -5 -5 2 -17 15 -28 13 -11 20 -23 15 -28 -4 -4 -10
-1 -12 6 -7 19 -23 14 -23 -8 0 -11 -4 -20 -10 -20 -5 0 -10 9 -10 19 0 11 -6
22 -12 24 -10 4 -9 8 2 16 8 5 11 13 7 17 -4 4 -15 -3 -26 -14 -10 -12 -26
-22 -35 -22 -9 0 -16 -4 -16 -10 0 -5 -22 -10 -50 -10 -27 0 -50 5 -50 10 0 6
5 10 10 10 6 0 10 5 10 10 0 15 -57 12 -64 -2 -5 -10 -7 -10 -12 0 -10 20 -44
15 -44 -8 0 -11 -4 -20 -10 -20 -5 0 -10 9 -10 20 0 26 -8 25 -33 -2 -13 -16
-21 -19 -24 -10 -3 6 -13 12 -24 12 -10 0 -19 5 -19 10 0 19 -53 10 -73 -12
-13 -16 -21 -19 -24 -10 -3 6 -13 12 -24 12 -21 0 -26 16 -6 23 6 2 9 8 5 12
-5 5 -17 -2 -28 -16 -18 -20 -23 -21 -31 -9 -8 13 -10 13 -20 0 -8 -11 -12
-12 -16 -2 -2 6 -9 12 -14 12 -14 0 -11 -38 4 -43 6 -2 9 -8 5 -12 -9 -10 -38
19 -38 39 0 19 -16 21 -23 4 -4 -10 -8 -9 -16 2 -8 12 -13 11 -32 -10 -14 -17
-23 -21 -26 -12 -8 21 -73 15 -94 -10 -11 -11 -22 -18 -27 -13 -4 4 -1 10 6
12 19 7 14 23 -8 23 -11 0 -20 5 -20 10 0 6 -4 10 -10 10 -14 0 -12 -38 3 -43
7 -2 8 -8 3 -13 -5 -5 -11 -4 -13 4 -3 6 -13 12 -24 12 -21 0 -26 16 -7 23 7
2 9 8 5 13 -4 5 -13 2 -18 -6 -8 -11 -12 -12 -16 -2 -8 19 -23 14 -23 -8 0
-13 -7 -20 -19 -20 -11 0 -21 -6 -24 -12 -2 -8 -8 -9 -13 -4 -5 5 -4 11 3 13
24 9 13 23 -17 23 -16 0 -30 5 -30 10 0 6 -9 10 -20 10 -22 0 -27 -16 -7 -23
6 -2 9 -8 5 -12 -5 -5 -16 2 -27 13 -10 12 -26 22 -35 22 -9 0 -16 5 -16 10 0
6 -13 10 -30 10 -21 0 -30 -5 -30 -16 0 -20 -29 -49 -38 -39 -4 4 -1 10 6 12
6 3 12 9 12 14 0 14 -38 11 -43 -3 -4 -10 -8 -9 -16 2 -5 8 -14 11 -18 6 -4
-5 -2 -11 5 -13 23 -9 12 -23 -18 -23 -16 0 -30 5 -30 10 0 6 5 10 10 10 6 0
10 9 10 20 0 26 -12 26 -30 0 -8 -11 -25 -20 -39 -20 -13 0 -32 -10 -42 -22
-11 -11 -22 -18 -27 -13 -4 4 -1 10 6 12 22 8 13 23 -14 23 -15 0 -35 10 -46
22 -16 19 -21 20 -29 8 -8 -13 -10 -13 -18 0 -6 8 -13 11 -18 7 -4 -5 -1 -12
7 -18 13 -8 13 -10 0 -19 -13 -9 -13 -11 0 -19 8 -6 11 -13 8 -17 -4 -3 -26
13 -48 36 l-41 42 -18 -21 c-23 -26 -31 -27 -31 -1 0 11 -4 20 -10 20 -5 0
-10 -13 -10 -30 0 -16 5 -30 10 -30 6 0 10 -4 10 -10 0 -5 -9 -10 -20 -10 -13
0 -20 7 -20 20 0 15 -7 20 -28 20 -16 0 -34 -8 -42 -20 -8 -11 -18 -20 -22
-20 -4 0 -8 9 -8 20 0 16 -7 20 -30 20 -23 0 -30 -4 -30 -20 0 -11 -4 -20 -10
-20 -5 0 -10 9 -10 20 0 13 -7 20 -20 20 -11 0 -20 5 -20 10 0 6 -9 10 -20 10
-16 0 -20 -7 -20 -30 0 -16 -4 -30 -10 -30 -5 0 -10 18 -10 40 0 44 -8 50 -30
20 -19 -26 -38 -25 -61 2 -11 11 -22 18 -27 13 -4 -4 -1 -10 6 -12 19 -7 14
-23 -8 -23 -11 0 -20 -4 -20 -10 0 -5 -9 -10 -20 -10 -11 0 -20 5 -20 10 0 6
5 10 10 10 6 0 10 5 10 10 0 6 -13 10 -30 10 -16 0 -30 -4 -30 -10 0 -5 -9
-10 -20 -10 -11 0 -20 5 -20 10 0 6 -9 10 -20 10 -13 0 -20 -7 -20 -20 0 -26
-8 -25 -33 3 -13 15 -21 18 -24 10 -5 -15 -43 -18 -43 -4 0 5 6 11 13 14 7 2
8 8 3 13 -5 5 -11 4 -13 -3 -3 -7 -13 -13 -23 -13 -10 0 -21 -6 -23 -12 -4
-10 -8 -10 -15 1 -9 12 -13 12 -26 -2 -9 -8 -16 -23 -16 -31 0 -9 -4 -16 -10
-16 -5 0 -10 14 -10 30 0 29 -1 30 -50 30 -27 0 -50 -4 -50 -10 0 -5 14 -10
30 -10 17 0 30 -4 30 -10 0 -5 -22 -10 -50 -10 -46 0 -67 12 -37 23 7 2 8 8 3
13 -5 5 -11 4 -13 -3 -8 -22 -43 -15 -43 7 0 11 -4 20 -10 20 -5 0 -10 -9 -10
-20 0 -11 5 -20 10 -20 6 0 10 -4 10 -10 0 -5 -13 -10 -29 -10 -16 0 -31 -6
-33 -12 -3 -9 -10 -8 -22 5 -10 10 -15 21 -12 25 4 3 11 0 16 -7 7 -12 11 -11
25 3 10 9 14 20 11 24 -4 3 -11 0 -17 -8 -8 -13 -10 -13 -18 -1 -8 12 -12 12
-25 -2 -9 -8 -16 -23 -16 -31 0 -9 -8 -16 -20 -16 -22 0 -27 16 -7 23 6 2 9 8
5 12 -5 5 -16 -2 -27 -13 -19 -23 -51 -30 -51 -12 0 6 9 10 20 10 24 0 25 6 6
26 -19 18 -26 18 -26 -2 0 -15 -23 -44 -34 -44 -3 0 -6 9 -6 20 0 18 -7 20
-56 20 -46 0 -60 -4 -75 -22 -11 -11 -22 -18 -27 -13 -4 4 -1 10 6 12 14 5 17
63 2 63 -5 0 -10 -7 -10 -16 0 -20 -24 -44 -43 -44 -9 0 -17 -6 -19 -12 -3 -9
-9 -8 -21 4 -19 18 -23 48 -7 48 6 0 10 5 10 10 0 6 -9 10 -20 10 -13 0 -20
-7 -20 -20 0 -22 -35 -29 -43 -7 -2 7 -8 8 -13 3 -5 -5 -4 -11 4 -13 19 -7 14
-23 -8 -23 -11 0 -20 5 -20 10 0 6 -7 10 -16 10 -9 0 -25 10 -35 22 l-19 21
-21 -24 c-17 -20 -22 -21 -30 -9 -8 13 -10 13 -20 0 -8 -11 -12 -12 -16 -2 -2
6 -13 12 -24 12 -10 0 -19 5 -19 10 0 6 -4 10 -10 10 -5 0 -10 -13 -10 -30 0
-16 -4 -30 -10 -30 -5 0 -10 5 -10 10 0 6 -9 10 -20 10 -13 0 -20 -7 -20 -20
0 -11 -4 -20 -10 -20 -5 0 -10 5 -10 10 0 6 -7 10 -16 10 -9 0 -26 10 -37 23
-13 15 -21 18 -24 10 -3 -7 -13 -13 -23 -13 -10 0 -21 6 -24 13 -5 10 -7 10
-12 0 -3 -7 -23 -13 -45 -13 -21 0 -39 -4 -39 -10 0 -5 -9 -10 -20 -10 -11 0
-20 5 -20 10 0 6 -7 10 -16 10 -9 0 -25 9 -35 21 -16 19 -20 20 -34 6 -8 -9
-15 -23 -15 -31 0 -11 -9 -16 -30 -16 -16 0 -30 5 -30 10 0 6 5 10 10 10 6 0
10 9 10 20 0 22 -15 27 -23 8 -4 -10 -8 -9 -16 2 -5 8 -14 11 -18 6 -4 -5 -2
-11 5 -13 6 -3 12 -9 12 -14 0 -14 -38 -11 -43 4 -4 9 -8 8 -17 -3 -9 -11 -13
-12 -17 -2 -5 14 -43 17 -43 3 0 -5 6 -11 12 -13 9 -3 8 -10 -5 -22 -17 -17
-19 -17 -36 3 -23 27 -51 27 -51 1 0 -24 -6 -25 -26 -6 -19 20 -18 26 6 26 11
0 20 5 20 10 0 6 9 10 20 10 11 0 20 5 20 10 0 14 -37 12 -43 -2 -4 -10 -8 -9
-16 2 -8 12 -13 11 -31 -10 -18 -20 -23 -22 -31 -10 -8 13 -10 13 -20 0 -8
-11 -12 -12 -16 -2 -6 14 -43 16 -43 2 0 -5 9 -10 20 -10 11 0 20 -4 20 -10 0
-15 -57 -12 -63 3 -4 9 -8 9 -15 -2 -9 -12 -16 -9 -40 17 -39 41 -62 42 -62 2
0 -23 -4 -30 -20 -30 -11 0 -20 5 -20 10 0 6 5 10 10 10 6 0 10 5 10 10 0 14
-38 12 -43 -2 -3 -9 -11 -6 -24 10 -24 26 -39 28 -59 7 -14 -13 -14 -17 1 -31
9 -9 19 -13 23 -9 4 4 1 10 -5 12 -20 7 -15 23 7 23 16 0 20 -7 20 -30 0 -25
-4 -30 -25 -30 -33 0 -84 48 -64 60 7 5 10 12 7 16 -4 3 -15 -2 -25 -12 -13
-12 -14 -19 -5 -22 23 -7 12 -22 -18 -22 -16 0 -30 5 -30 10 0 6 -13 10 -30
10 -30 0 -41 -14 -17 -23 6 -2 9 -8 5 -12 -4 -4 -26 12 -48 35 -22 23 -44 39
-48 35 -4 -4 -1 -10 6 -12 23 -9 12 -23 -17 -23 -16 0 -31 -6 -33 -12 -3 -9
-10 -8 -23 5 -15 16 -16 20 -4 27 7 5 10 13 5 17 -5 4 -11 2 -13 -4 -3 -7 -13
-13 -24 -13 -10 0 -19 -4 -19 -10 0 -5 9 -10 20 -10 11 0 20 -4 20 -10 0 -18
-32 -10 -52 12 -16 19 -21 20 -29 8 -8 -11 -12 -12 -16 -2 -9 23 -23 12 -23
-18 0 -16 -4 -30 -10 -30 -5 0 -10 5 -10 10 0 6 -13 10 -30 10 -16 0 -30 5
-30 10 0 6 5 10 10 10 6 0 10 5 10 10 0 6 -9 10 -19 10 -11 0 -21 6 -23 12 -6
17 -38 -14 -38 -36 0 -9 -8 -16 -20 -16 -11 0 -20 5 -20 10 0 6 5 10 10 10 6
0 10 5 10 10 0 18 -55 11 -70 -10 -15 -21 -50 -28 -50 -10 0 6 -9 10 -20 10
-11 0 -20 -4 -20 -10 0 -5 5 -10 10 -10 6 0 10 -4 10 -10 0 -5 -9 -10 -20 -10
-11 0 -20 5 -20 10 0 6 -13 10 -30 10 -23 0 -30 4 -30 20 0 11 -4 20 -10 20
-5 0 -10 -4 -10 -10 0 -5 -4 -10 -10 -10 -5 0 -10 9 -10 20 0 11 -4 20 -10 20
-5 0 -10 -9 -10 -20 0 -17 -7 -20 -40 -20 -22 0 -40 -4 -40 -10 0 -5 -9 -10
-19 -10 -11 0 -21 -6 -24 -12 -2 -8 -8 -9 -13 -4 -5 5 -4 11 4 13 23 9 12 23
-17 23 -16 0 -31 6 -34 13 -2 7 -8 8 -13 3 -5 -5 -4 -11 4 -13 19 -7 14 -23
-8 -23 -11 0 -20 -4 -20 -10 0 -5 -4 -10 -10 -10 -5 0 -10 14 -10 30 0 17 -4
30 -10 30 -5 0 -10 -4 -10 -10 0 -5 -8 -10 -18 -10 -10 0 -24 -9 -32 -20 -8
-11 -18 -20 -22 -20 -4 0 -8 9 -8 20 0 12 7 20 16 20 20 0 49 29 39 38 -4 4
-10 1 -12 -5 -3 -7 -17 -13 -32 -13 -15 0 -33 -9 -41 -20 -8 -11 -18 -20 -22
-20 -4 0 -8 9 -8 20 0 11 -4 20 -10 20 -5 0 -10 -9 -10 -20 0 -11 -3 -20 -6
-20 -11 0 -34 29 -34 44 0 9 -4 16 -10 16 -5 0 -10 -4 -10 -10 0 -5 -9 -10
-20 -10 -11 0 -20 5 -20 10 0 20 -72 11 -91 -12 -11 -11 -22 -18 -27 -13 -4 4
-1 10 6 12 19 7 14 23 -8 23 -11 0 -20 -4 -20 -10 0 -14 -38 -12 -43 3 -2 6
-8 8 -13 4 -5 -4 -2 -13 6 -18 11 -8 12 -12 3 -16 -7 -2 -13 -9 -13 -14 0 -14
38 -11 43 4 2 6 8 9 12 5 10 -9 -19 -38 -39 -38 -9 0 -16 5 -16 10 0 6 -9 10
-19 10 -11 0 -22 6 -25 13 -5 10 -7 10 -12 0 -7 -15 -44 -17 -44 -3 0 6 5 10
10 10 6 0 10 9 10 20 0 11 -4 20 -10 20 -5 0 -10 -7 -10 -16 0 -15 -23 -44
-34 -44 -3 0 -6 9 -6 20 0 13 -7 20 -20 20 -11 0 -20 -4 -20 -10 0 -5 5 -10
10 -10 6 0 10 -4 10 -10 0 -14 -38 -12 -43 3 -2 7 -8 8 -13 3 -5 -5 -4 -11 4
-13 18 -7 15 -23 -6 -23 -10 0 -24 9 -32 20 -8 11 -18 20 -22 20 -4 0 -8 -9
-8 -20 0 -11 -4 -20 -10 -20 -5 0 -10 18 -10 40 0 22 -4 40 -10 40 -5 0 -10
-9 -10 -20 0 -13 -7 -20 -20 -20 -13 0 -20 -7 -20 -20 0 -11 -4 -20 -10 -20
-5 0 -10 9 -10 20 0 13 -7 20 -18 20 -10 0 -24 9 -32 20 -8 11 -18 20 -22 20
-13 0 -9 -38 5 -43 7 -2 8 -8 3 -13 -5 -5 -11 -4 -13 4 -5 14 -43 16 -43 2 0
-16 -30 -12 -48 7 -12 12 -13 18 -4 21 19 6 14 22 -8 22 -22 0 -29 -35 -8 -42
21 -7 -17 -38 -46 -38 -27 0 -35 14 -13 24 10 5 10 7 0 12 -7 3 -13 14 -13 25
0 10 -4 19 -10 19 -5 0 -10 -9 -10 -20 0 -11 -4 -20 -10 -20 -5 0 -10 9 -10
20 0 11 -4 20 -10 20 -5 0 -10 -18 -10 -40 0 -39 -12 -53 -24 -27 -5 10 -7 10
-12 0 -10 -22 -24 -14 -24 13 0 23 -20 54 -34 54 -12 0 -6 -38 6 -42 9 -3 8
-9 -4 -21 -18 -19 -48 -23 -48 -7 0 6 9 10 20 10 24 0 25 6 6 26 -19 19 -46
18 -46 -2 0 -18 -23 -44 -40 -44 -17 0 -44 30 -35 38 4 4 10 1 12 -5 5 -15 43
-17 43 -3 0 6 -9 10 -20 10 -11 0 -20 5 -20 10 0 6 9 10 20 10 11 0 20 5 20
10 0 18 -32 10 -52 -12 -16 -19 -21 -20 -28 -8 -5 8 -13 11 -17 6 -4 -5 -2
-11 5 -13 18 -7 15 -23 -6 -23 -10 0 -24 9 -32 20 -19 26 -61 26 -80 0 -8 -11
-22 -20 -32 -20 -24 0 -23 9 4 31 11 11 18 22 13 27 -4 4 -10 1 -12 -5 -3 -7
-18 -13 -34 -13 -29 0 -40 -15 -17 -22 9 -3 7 -10 -6 -24 -14 -13 -21 -15 -24
-6 -4 14 -42 16 -42 2 0 -18 -31 -10 -55 15 -30 29 -31 35 -5 35 13 0 20 -7
20 -20 0 -11 5 -20 10 -20 15 0 12 29 -4 46 -20 20 -36 18 -57 -8 l-19 -21
-21 24 c-15 16 -23 20 -26 12 -6 -17 -40 -17 -46 0 -2 7 -8 8 -13 3 -5 -5 -4
-11 4 -13 6 -3 12 -14 12 -26 0 -16 -9 -8 -31 31 -17 28 -35 52 -40 52 -5 0
-9 9 -9 20 0 22 -16 27 -23 8 -3 -8 -8 -6 -13 7 -4 11 -20 32 -36 47 -15 14
-28 34 -28 43 0 10 -5 15 -14 12 -8 -3 -18 4 -24 18 -6 13 -21 25 -34 27 -16
2 -23 9 -22 25 0 12 -3 20 -7 17 -5 -2 -16 8 -25 23 -10 15 -31 41 -48 56 -22
21 -27 30 -17 36 9 6 3 15 -23 30 -20 13 -34 27 -31 31 3 5 -5 20 -17 33 -13
14 -29 32 -36 41 -6 8 -18 13 -25 10 -8 -3 -20 7 -28 23 -8 15 -17 30 -20 33
-3 3 -18 26 -33 52 -15 25 -33 48 -40 51 -7 3 -32 39 -56 81 -24 42 -50 76
-57 76 -7 0 -13 7 -13 15 0 8 -5 15 -11 15 -5 0 -8 4 -4 9 3 5 1 12 -5 16 -5
3 -26 30 -46 60 -20 30 -39 55 -43 55 -4 0 -20 23 -36 51 -15 28 -40 66 -56
84 -16 18 -29 38 -29 44 0 6 -3 11 -7 11 -5 0 -21 23 -36 50 -16 28 -32 50
-37 50 -5 0 -25 28 -45 63 -50 86 -98 158 -124 185 -12 13 -19 27 -17 31 3 4
-9 23 -25 42 -17 19 -37 46 -45 62 -8 15 -19 27 -25 27 -6 0 -8 4 -4 9 3 6 -1
13 -8 18 -8 4 -22 22 -32 38 -10 17 -23 35 -29 40 -6 6 -20 28 -31 49 -11 22
-25 44 -31 50 -5 6 -27 40 -48 76 -21 36 -41 67 -45 70 -4 3 -19 26 -34 53
-15 26 -30 47 -33 47 -3 0 3 -15 14 -32 11 -18 232 -395 492 -838 260 -443
618 -1054 797 -1358 l324 -553 -21 -34 -22 -35 -1438 0 -1437 0 -270 453
c-1381 2317 -2381 3994 -2502 4197 -81 135 -246 410 -366 613 l-220 367 -1970
-2 -1970 -3 -50 -27 c-62 -32 -88 -59 -117 -123 l-23 -50 -3 -2692 -2 -2692
-26 -20 c-27 -21 -29 -21 -1304 -21 -1277 0 -1277 0 -1304 21 l-26 20 0 2982
c0 2878 2 3125 30 3332 10 75 6 102 -6 39z m6420 -1548 c21 -4 54 -13 73 -21
19 -8 39 -13 43 -10 5 3 10 2 12 -2 1 -5 25 -19 51 -33 59 -31 129 -97 182
-173 22 -32 45 -63 50 -70 11 -15 24 -36 65 -112 17 -31 41 -73 55 -95 14 -22
25 -44 25 -50 0 -18 115 -226 210 -380 5 -8 18 -35 30 -60 12 -25 28 -58 36
-75 41 -79 47 -91 56 -105 5 -8 17 -33 28 -56 11 -22 28 -51 38 -65 11 -13 23
-35 27 -49 4 -14 10 -27 14 -30 8 -7 44 -82 47 -99 2 -8 10 -18 18 -23 9 -5
16 -16 16 -24 0 -14 27 -67 81 -159 16 -27 48 -87 70 -133 22 -45 45 -80 50
-76 6 3 9 0 8 -7 -1 -8 5 -32 15 -54 32 -71 61 -130 66 -135 3 -3 17 -27 31
-55 67 -130 122 -231 130 -239 5 -6 9 -18 9 -27 0 -9 7 -20 16 -23 8 -3 13
-10 9 -16 -3 -5 0 -20 7 -32 7 -13 11 -29 10 -35 -2 -7 1 -13 6 -13 6 0 13
-11 16 -25 4 -14 11 -23 16 -20 6 3 10 0 10 -7 0 -13 50 -119 61 -128 7 -6 52
-101 54 -115 4 -23 29 -64 37 -59 5 3 7 2 6 -3 -3 -13 14 -56 29 -71 8 -8 12
-21 9 -28 -3 -7 0 -19 7 -27 22 -24 64 -112 60 -124 -3 -7 2 -13 11 -13 10 0
16 -9 16 -21 0 -11 6 -33 14 -47 22 -43 40 -86 38 -94 -1 -5 3 -8 10 -8 6 0 9
-3 5 -6 -3 -3 8 -27 24 -54 16 -26 29 -52 29 -58 0 -6 13 -36 29 -67 16 -30
29 -71 29 -90 0 -21 12 -54 30 -84 17 -27 28 -51 26 -54 -3 -3 6 -16 20 -30
27 -27 34 -47 16 -47 -5 0 -10 5 -10 10 0 6 -5 10 -12 10 -9 0 -9 -3 0 -12 7
-7 12 -20 12 -30 0 -10 5 -18 11 -18 6 0 8 -7 5 -16 -3 -8 -2 -12 3 -9 5 3 12
1 16 -5 3 -5 -1 -10 -9 -10 -20 0 -20 -2 5 -44 12 -20 16 -36 10 -36 -15 0
-14 -15 2 -32 14 -15 47 -73 47 -82 0 -3 -7 -6 -16 -6 -15 0 -15 -2 0 -25 20
-30 20 -35 1 -35 -8 0 -15 -4 -15 -10 0 -5 11 -10 24 -10 14 0 28 -4 31 -10 3
-5 -3 -10 -14 -10 -10 0 -22 -6 -24 -12 -4 -10 -8 -9 -16 2 -8 12 -13 11 -30
-9 -18 -21 -22 -22 -36 -8 -8 9 -15 27 -15 41 0 14 -4 26 -10 26 -5 0 -10 -13
-10 -30 0 -23 -4 -30 -20 -30 -22 0 -27 16 -7 23 6 2 9 8 5 12 -5 5 -18 -3
-29 -16 -15 -16 -23 -20 -26 -11 -3 7 -23 12 -52 12 -35 0 -50 5 -61 20 -8 11
-18 20 -22 20 -13 0 -9 -38 5 -43 6 -2 8 -8 4 -13 -4 -5 -13 -2 -18 6 -8 11
-12 12 -16 3 -7 -20 -37 -15 -53 7 -18 26 -42 26 -60 0 -19 -26 -38 -25 -61 2
-11 11 -22 18 -26 14 -4 -4 -1 -11 6 -16 12 -7 11 -11 -3 -25 -9 -10 -20 -14
-24 -11 -3 4 0 11 7 16 12 7 12 11 -2 24 -17 18 -47 21 -47 6 0 -5 -12 -10
-26 -10 -15 0 -35 -10 -47 -22 -13 -16 -21 -19 -24 -10 -5 14 -63 17 -63 2 0
-5 -4 -10 -10 -10 -5 0 -10 14 -10 30 0 23 -5 30 -19 30 -11 0 -21 6 -24 13
-2 6 -8 9 -12 5 -5 -5 2 -17 15 -28 13 -11 20 -23 16 -27 -4 -4 -12 -1 -17 7
-8 11 -12 12 -16 3 -2 -7 -13 -13 -23 -13 -10 0 -20 -6 -23 -12 -2 -7 -8 -10
-12 -6 -5 5 2 16 13 27 27 23 28 31 3 31 -11 0 -21 6 -24 13 -2 6 -8 8 -13 4
-5 -4 -2 -12 5 -17 12 -7 12 -11 -2 -24 -8 -9 -23 -16 -31 -16 -9 0 -16 -4
-16 -10 0 -5 -13 -10 -29 -10 -16 0 -31 -6 -34 -12 -2 -8 -8 -9 -13 -4 -5 5
-4 11 4 13 6 3 12 13 12 24 0 21 15 26 24 7 5 -10 7 -10 12 0 3 6 14 12 25 12
10 0 19 5 19 10 0 14 -37 12 -43 -2 -4 -10 -8 -9 -16 2 -8 12 -13 11 -29 -8
-24 -28 -40 -28 -63 0 -11 11 -22 18 -27 13 -4 -4 -1 -10 6 -12 19 -7 14 -23
-7 -23 -11 0 -21 -6 -23 -12 -3 -9 -10 -7 -24 6 -13 14 -15 21 -6 24 13 4 17
42 4 42 -4 0 -14 -9 -22 -20 -16 -22 -46 -27 -53 -7 -3 8 -11 5 -24 -10 -25
-28 -33 -29 -33 -3 0 11 -4 20 -10 20 -5 0 -10 -9 -10 -20 0 -11 -4 -20 -10
-20 -5 0 -10 9 -10 20 0 16 -7 20 -30 20 -16 0 -30 -4 -30 -10 0 -5 -9 -10
-20 -10 -13 0 -20 -7 -20 -20 0 -11 -4 -20 -10 -20 -5 0 -10 9 -10 20 0 11 -4
20 -10 20 -5 0 -10 -9 -10 -20 0 -11 -4 -20 -8 -20 -4 0 -14 9 -22 20 -8 11
-22 20 -31 20 -10 0 -19 6 -22 13 -2 7 -8 8 -13 3 -5 -5 -4 -11 4 -13 29 -11
8 -23 -38 -23 -54 0 -61 7 -30 30 24 17 26 30 4 30 -20 0 -44 -24 -44 -44 0
-9 -4 -16 -10 -16 -5 0 -10 9 -10 20 0 11 -4 20 -10 20 -5 0 -10 -13 -10 -29
0 -16 -6 -31 -15 -35 -18 -6 -45 2 -45 15 0 14 18 11 23 -3 2 -7 8 -10 12 -6
7 6 -37 58 -50 58 -3 0 -5 -7 -5 -16 0 -20 -29 -49 -38 -39 -4 4 -1 10 6 12
19 7 14 23 -8 23 -11 0 -20 5 -20 10 0 6 -13 10 -30 10 -16 0 -30 -4 -30 -10
0 -5 14 -10 30 -10 17 0 30 -4 30 -10 0 -5 -9 -10 -20 -10 -11 0 -20 -4 -20
-10 0 -5 -4 -10 -10 -10 -5 0 -10 7 -10 16 0 20 -24 44 -44 44 -9 0 -16 5 -16
10 0 6 -9 10 -20 10 -11 0 -20 -4 -20 -10 0 -15 -77 -12 -84 3 -5 10 -7 10
-12 0 -7 -17 -61 -17 -67 0 -2 6 -8 8 -13 4 -5 -4 -2 -12 5 -17 12 -7 12 -11
-2 -24 -8 -9 -23 -16 -31 -16 -9 0 -16 -4 -16 -10 0 -5 -9 -10 -20 -10 -22 0
-27 16 -8 22 9 3 7 10 -6 24 -14 13 -21 15 -24 6 -4 -14 -42 -17 -42 -3 0 5 6
11 13 14 6 2 9 8 5 12 -5 5 -16 -2 -27 -13 -24 -29 -71 -30 -71 -2 0 11 -4 20
-10 20 -5 0 -10 -12 -10 -26 0 -35 -22 -54 -64 -54 -29 0 -36 4 -36 20 0 22
16 27 23 8 2 -7 8 -10 12 -6 10 9 -19 38 -38 38 -9 0 -18 -6 -21 -12 -5 -10
-7 -10 -12 0 -11 23 -55 13 -85 -19 l-29 -32 -22 24 c-14 16 -22 20 -25 12 -8
-22 -43 -15 -43 7 0 11 -4 20 -10 20 -5 0 -10 -4 -10 -10 0 -5 -4 -10 -10 -10
-5 0 -10 9 -10 20 0 13 -7 20 -20 20 -11 0 -20 -4 -20 -10 0 -5 5 -10 10 -10
6 0 10 -13 10 -30 0 -16 5 -30 12 -30 6 0 9 -2 6 -5 -11 -11 -38 8 -38 26 0
21 -16 26 -23 7 -4 -10 -8 -9 -16 2 -9 13 -12 13 -20 1 -8 -12 -12 -11 -27 3
-14 15 -15 19 -3 26 7 5 10 13 5 17 -5 4 -11 2 -13 -4 -3 -7 -13 -13 -24 -13
-21 0 -26 -16 -7 -22 9 -3 7 -10 -6 -24 -14 -13 -21 -15 -24 -6 -2 6 -16 12
-31 12 -15 0 -33 9 -41 20 -10 14 -26 20 -52 20 -31 0 -38 -4 -38 -20 0 -11
-4 -20 -10 -20 -5 0 -10 5 -10 10 0 14 -38 12 -43 -2 -3 -9 -11 -6 -24 10 -22
24 -49 29 -56 10 -4 -10 -8 -9 -16 2 -8 12 -13 11 -29 -8 -24 -27 -32 -28 -32
-2 0 11 -4 20 -10 20 -5 0 -10 -4 -10 -10 0 -6 -27 -10 -60 -10 -55 0 -79 -12
-47 -23 6 -2 9 -8 5 -12 -9 -10 -58 40 -58 60 0 8 -4 15 -10 15 -5 0 -10 -9
-10 -20 0 -12 -7 -20 -16 -20 -9 0 -25 -10 -35 -22 -11 -11 -22 -18 -26 -15
-3 4 4 15 15 26 21 18 30 51 14 51 -4 0 -14 -9 -22 -20 -8 -12 -26 -20 -42
-20 -28 0 -38 -15 -15 -23 6 -2 9 -8 5 -12 -12 -12 -38 22 -38 49 0 14 -4 26
-10 26 -5 0 -10 -9 -10 -20 0 -13 -7 -20 -20 -20 -12 0 -20 -7 -20 -16 0 -19
-28 -49 -38 -40 -3 4 0 12 8 17 11 8 12 12 3 16 -7 2 -13 11 -13 20 0 14 -23
43 -34 43 -12 0 -6 -58 7 -63 7 -2 8 -8 3 -13 -5 -5 -11 -4 -13 4 -3 6 -13 12
-23 12 -10 0 -20 -6 -23 -12 -2 -8 -8 -9 -13 -4 -5 5 -4 11 4 13 14 5 17 43 3
43 -5 0 -12 -6 -15 -12 -5 -10 -7 -10 -12 0 -9 18 -38 14 -54 -8 -8 -11 -18
-20 -22 -20 -4 0 -8 9 -8 20 0 22 -15 27 -24 8 -5 -10 -7 -10 -12 0 -13 27
-64 2 -64 -32 0 -20 -7 -20 -26 -2 -17 18 -18 43 -1 49 6 2 8 8 4 13 -4 5 -12
2 -18 -6 -8 -13 -10 -13 -18 0 -6 8 -13 11 -18 7 -4 -5 -1 -12 6 -17 12 -7 11
-11 -3 -26 -15 -14 -19 -15 -27 -3 -8 12 -11 12 -20 -1 -8 -11 -12 -12 -16 -2
-6 14 -43 16 -43 2 0 -5 -13 -10 -30 -10 -16 0 -30 -4 -30 -10 0 -5 -4 -10
-10 -10 -5 0 -10 9 -10 20 0 16 7 20 30 20 17 0 30 5 30 10 0 6 -13 10 -30 10
-16 0 -30 5 -30 10 0 6 -4 10 -10 10 -5 0 -10 -9 -10 -20 0 -22 -35 -28 -43
-7 -4 9 -8 8 -17 -3 -9 -11 -13 -12 -17 -2 -8 19 -23 14 -23 -8 0 -11 -4 -20
-10 -20 -5 0 -10 7 -10 16 0 15 -23 44 -34 44 -3 0 -6 -9 -6 -20 0 -11 -4 -20
-8 -20 -4 0 -14 9 -22 20 -20 28 -30 25 -30 -10 0 -27 -3 -30 -30 -30 -23 0
-30 4 -30 20 0 11 -4 20 -10 20 -5 0 -10 -13 -10 -30 0 -23 -4 -30 -20 -30
-11 0 -20 5 -20 10 0 6 -9 10 -19 10 -11 0 -22 6 -25 13 -5 10 -7 10 -12 0 -8
-18 -24 -16 -24 3 0 19 -28 49 -38 40 -3 -4 0 -11 7 -16 12 -7 11 -11 -4 -27
-13 -13 -20 -14 -23 -5 -2 6 -12 12 -23 12 -22 0 -27 -35 -6 -43 7 -2 8 -8 3
-13 -5 -5 -11 -4 -13 4 -3 6 -13 12 -24 12 -21 0 -26 16 -6 23 9 4 8 8 -3 16
-13 10 -13 12 0 20 8 6 11 13 7 18 -5 4 -13 1 -18 -7 -8 -11 -12 -12 -16 -2
-8 19 -23 14 -23 -8 0 -11 -4 -20 -10 -20 -5 0 -10 -9 -10 -20 0 -11 -4 -20
-10 -20 -5 0 -10 12 -10 26 0 29 -31 67 -38 46 -2 -6 -17 -12 -33 -12 -22 0
-29 -5 -29 -20 0 -26 -8 -25 -31 2 -11 11 -22 18 -26 14 -4 -4 -1 -11 7 -16 8
-5 11 -12 7 -17 -5 -4 -12 -1 -18 7 -8 13 -10 13 -18 0 -8 -12 -13 -10 -32 10
-14 17 -23 21 -26 13 -5 -15 -43 -18 -43 -4 0 5 6 11 13 14 6 2 8 8 4 13 -4 5
-12 2 -18 -6 -8 -13 -10 -13 -18 -1 -8 12 -12 12 -26 -3 -10 -9 -14 -20 -11
-24 4 -3 11 0 16 8 5 8 12 11 16 8 3 -4 -2 -15 -12 -25 -12 -13 -19 -14 -22
-5 -2 6 -10 12 -18 12 -11 0 -14 16 -14 70 0 39 -4 70 -8 70 -18 0 -32 54 -34
128 0 42 -3 62 -5 45 -10 -79 -32 2 -25 90 1 9 -3 17 -9 17 -6 0 -8 7 -5 17 4
9 4 41 0 70 -5 43 -10 53 -25 53 -11 0 -19 5 -19 10 0 6 9 10 20 10 13 0 20 7
20 20 0 13 -7 20 -20 20 -16 0 -20 7 -20 33 -1 124 -22 287 -45 352 -6 16 -5
17 4 5 13 -18 14 -5 2 18 -5 10 -12 60 -16 112 -4 52 -9 106 -10 120 -2 14 -6
52 -10 85 -8 71 -11 122 -20 275 -4 63 -10 117 -15 120 -7 5 -26 394 -22 465
1 16 -3 32 -9 35 -5 4 -12 87 -15 201 -3 107 -9 196 -14 199 -4 3 -11 113 -15
245 -4 132 -9 256 -11 275 -2 19 -6 118 -9 220 -3 102 -8 219 -11 260 -23 276
26 434 156 500 21 11 41 24 45 29 3 6 12 8 20 4 9 -3 22 0 30 7 9 7 18 11 20
8 3 -2 33 1 67 7 47 9 464 11 1623 9 858 -1 1577 -5 1599 -8z m-11344 -4186
c0 -5 -4 -10 -10 -10 -5 0 -10 5 -10 10 0 6 5 10 10 10 6 0 10 -4 10 -10z
m1180 -10 c0 -11 -4 -20 -10 -20 -5 0 -10 9 -10 20 0 11 5 20 10 20 6 0 10 -9
10 -20z m1520 1 c0 -11 6 -21 13 -24 6 -2 9 -8 5 -12 -9 -10 -38 19 -38 39 0
9 5 16 10 16 6 0 10 -9 10 -19z m5780 14 c0 -11 -51 -57 -57 -52 -3 3 6 17 18
31 23 24 39 32 39 21z m3006 -9 c14 -14 20 -46 8 -46 -11 0 -34 29 -34 44 0
20 7 20 26 2z m6554 -6 c0 -11 -4 -20 -10 -20 -5 0 -10 9 -10 20 0 11 5 20 10
20 6 0 10 -9 10 -20z m1580 10 c0 -5 -9 -10 -20 -10 -11 0 -20 -4 -20 -10 0
-5 9 -10 20 -10 11 0 20 -4 20 -10 0 -5 -9 -10 -20 -10 -11 0 -20 5 -20 10 0
14 -38 12 -43 -2 -2 -8 -8 -9 -13 -4 -5 5 -4 11 4 13 6 3 12 13 12 24 0 16 7
19 40 19 22 0 40 -4 40 -10z m2200 -10 c0 -11 -4 -20 -10 -20 -5 0 -10 9 -10
20 0 11 5 20 10 20 6 0 10 -9 10 -20z m560 0 c0 -11 -4 -20 -10 -20 -5 0 -10
-9 -10 -20 0 -11 -4 -20 -10 -20 -5 0 -10 9 -10 20 0 11 5 20 10 20 6 0 10 9
10 20 0 11 5 20 10 20 6 0 10 -9 10 -20z m1886 6 c19 -19 18 -46 -2 -46 -8 0
-22 7 -30 15 -13 12 -13 17 -2 29 16 19 16 19 34 2z m381 -1 c8 -9 12 -19 9
-23 -4 -3 -11 0 -17 8 -8 13 -10 13 -18 0 -6 -8 -13 -11 -16 -8 -6 6 13 36 23
38 2 0 10 -7 19 -15z m1393 -5 c0 -11 -4 -20 -10 -20 -5 0 -10 9 -10 20 0 11
5 20 10 20 6 0 10 -9 10 -20z m-28680 -10 c0 -5 -4 -10 -10 -10 -5 0 -10 5
-10 10 0 6 5 10 10 10 6 0 10 -4 10 -10z m160 0 c0 -5 -9 -10 -20 -10 -11 0
-20 5 -20 10 0 6 9 10 20 10 11 0 20 -4 20 -10z m160 0 c0 -5 -4 -10 -10 -10
-5 0 -10 5 -10 10 0 6 5 10 10 10 6 0 10 -4 10 -10z m620 0 c0 -5 -4 -10 -10
-10 -5 0 -10 5 -10 10 0 6 5 10 10 10 6 0 10 -4 10 -10z m100 0 c0 -5 -4 -10
-10 -10 -5 0 -10 5 -10 10 0 6 5 10 10 10 6 0 10 -4 10 -10z m180 0 c0 -5 -4
-10 -10 -10 -5 0 -10 5 -10 10 0 6 5 10 10 10 6 0 10 -4 10 -10z m240 4 c0 -7
-27 -34 -34 -34 -3 0 -6 9 -6 20 0 13 7 20 20 20 11 0 20 -3 20 -6z m280 -4
c0 -5 -4 -10 -10 -10 -5 0 -10 5 -10 10 0 6 5 10 10 10 6 0 10 -4 10 -10z
m520 0 c0 -5 -4 -10 -10 -10 -5 0 -10 5 -10 10 0 6 5 10 10 10 6 0 10 -4 10
-10z m1380 0 c0 -5 -4 -10 -10 -10 -5 0 -10 5 -10 10 0 6 5 10 10 10 6 0 10
-4 10 -10z m420 -10 c0 -11 -4 -20 -10 -20 -5 0 -10 9 -10 20 0 11 5 20 10 20
6 0 10 -9 10 -20z m120 10 c0 -5 -4 -10 -10 -10 -5 0 -10 5 -10 10 0 6 5 10
10 10 6 0 10 -4 10 -10z m2123 -2 c4 -10 8 -9 16 2 5 8 13 11 17 8 3 -4 -1
-15 -11 -24 -14 -15 -18 -15 -26 -3 -8 12 -10 12 -18 -1 -6 -8 -13 -11 -16 -8
-7 7 15 37 27 38 3 0 9 -6 11 -12z m5797 -8 c0 -11 -4 -20 -10 -20 -5 0 -10 9
-10 20 0 11 5 20 10 20 6 0 10 -9 10 -20z m1980 10 c0 -5 -4 -10 -10 -10 -5 0
-10 5 -10 10 0 6 5 10 10 10 6 0 10 -4 10 -10z m100 0 c0 -5 -4 -10 -10 -10
-5 0 -10 5 -10 10 0 6 5 10 10 10 6 0 10 -4 10 -10z m40 0 c0 -5 -4 -10 -10
-10 -5 0 -10 5 -10 10 0 6 5 10 10 10 6 0 10 -4 10 -10z m6820 4 c0 -3 -7 -12
-15 -21 -20 -19 -32 -10 -14 11 14 15 29 21 29 10z m2860 -4 c0 -5 -9 -10 -20
-10 -11 0 -20 5 -20 10 0 6 9 10 20 10 11 0 20 -4 20 -10z m160 -10 c0 -11 -4
-20 -10 -20 -5 0 -10 9 -10 20 0 11 5 20 10 20 6 0 10 -9 10 -20z m600 10 c0
-5 -4 -10 -10 -10 -5 0 -10 5 -10 10 0 6 5 10 10 10 6 0 10 -4 10 -10z m60
-10 c0 -11 -4 -20 -10 -20 -5 0 -10 9 -10 20 0 11 5 20 10 20 6 0 10 -9 10
-20z m180 10 c0 -5 -4 -10 -10 -10 -5 0 -10 5 -10 10 0 6 5 10 10 10 6 0 10
-4 10 -10z m3560 -10 c0 -11 -4 -20 -10 -20 -5 0 -10 9 -10 20 0 11 5 20 10
20 6 0 10 -9 10 -20z m-29300 -10 c0 -5 -4 -10 -10 -10 -5 0 -10 5 -10 10 0 6
5 10 10 10 6 0 10 -4 10 -10z m100 0 c0 -5 -9 -10 -20 -10 -11 0 -20 5 -20 10
0 6 9 10 20 10 11 0 20 -4 20 -10z m540 0 c0 -5 -4 -10 -10 -10 -5 0 -10 5
-10 10 0 6 5 10 10 10 6 0 10 -4 10 -10z m1180 0 c0 -5 -4 -10 -10 -10 -5 0
-10 5 -10 10 0 6 5 10 10 10 6 0 10 -4 10 -10z m420 0 c0 -5 -4 -10 -10 -10
-5 0 -10 5 -10 10 0 6 5 10 10 10 6 0 10 -4 10 -10z m1240 0 c0 -5 -9 -10 -20
-10 -11 0 -20 5 -20 10 0 6 9 10 20 10 11 0 20 -4 20 -10z m760 0 c0 -5 -4
-10 -10 -10 -5 0 -10 5 -10 10 0 6 5 10 10 10 6 0 10 -4 10 -10z m60 0 c0 -5
-4 -10 -10 -10 -5 0 -10 5 -10 10 0 6 5 10 10 10 6 0 10 -4 10 -10z m120 0 c0
-5 -4 -10 -10 -10 -5 0 -10 5 -10 10 0 6 5 10 10 10 6 0 10 -4 10 -10z m360 0
c0 -5 -4 -10 -10 -10 -5 0 -10 5 -10 10 0 6 5 10 10 10 6 0 10 -4 10 -10z m80
0 c0 -5 -13 -10 -30 -10 -16 0 -30 5 -30 10 0 6 14 10 30 10 17 0 30 -4 30
-10z m780 0 c0 -5 -4 -10 -10 -10 -5 0 -10 5 -10 10 0 6 5 10 10 10 6 0 10 -4
10 -10z m920 0 c0 -5 -13 -10 -30 -10 -16 0 -30 5 -30 10 0 6 14 10 30 10 17
0 30 -4 30 -10z m100 0 c0 -5 -4 -10 -10 -10 -5 0 -10 5 -10 10 0 6 5 10 10
10 6 0 10 -4 10 -10z m220 0 c0 -5 -4 -10 -10 -10 -5 0 -10 5 -10 10 0 6 5 10
10 10 6 0 10 -4 10 -10z m80 0 c0 -5 -4 -10 -10 -10 -5 0 -10 5 -10 10 0 6 5
10 10 10 6 0 10 -4 10 -10z m4740 0 c0 -5 -4 -10 -10 -10 -5 0 -10 5 -10 10 0
6 5 10 10 10 6 0 10 -4 10 -10z m60 0 c0 -5 -4 -10 -10 -10 -5 0 -10 5 -10 10
0 6 5 10 10 10 6 0 10 -4 10 -10z m800 0 c0 -5 -4 -10 -10 -10 -5 0 -10 5 -10
10 0 6 5 10 10 10 6 0 10 -4 10 -10z m40 0 c0 -5 -4 -10 -10 -10 -5 0 -10 5
-10 10 0 6 5 10 10 10 6 0 10 -4 10 -10z m880 0 c0 -5 -9 -10 -20 -10 -11 0
-20 5 -20 10 0 6 9 10 20 10 11 0 20 -4 20 -10z m300 0 c0 -5 -9 -10 -20 -10
-11 0 -20 5 -20 10 0 6 9 10 20 10 11 0 20 -4 20 -10z m960 0 c0 -5 -4 -10
-10 -10 -5 0 -10 5 -10 10 0 6 5 10 10 10 6 0 10 -4 10 -10z m360 0 c0 -5 -4
-10 -10 -10 -5 0 -10 5 -10 10 0 6 5 10 10 10 6 0 10 -4 10 -10z m1340 0 c0
-5 -4 -10 -10 -10 -5 0 -10 5 -10 10 0 6 5 10 10 10 6 0 10 -4 10 -10z m5140
0 c0 -5 -4 -10 -10 -10 -5 0 -10 5 -10 10 0 6 5 10 10 10 6 0 10 -4 10 -10z
m1000 0 c0 -5 -4 -10 -10 -10 -5 0 -10 5 -10 10 0 6 5 10 10 10 6 0 10 -4 10
-10z m1080 0 c0 -5 -9 -10 -20 -10 -11 0 -20 5 -20 10 0 6 9 10 20 10 11 0 20
-4 20 -10z m640 0 c0 -5 -4 -10 -10 -10 -5 0 -10 5 -10 10 0 6 5 10 10 10 6 0
10 -4 10 -10z m887 -5 c8 -9 13 -19 10 -22 -6 -5 -37 21 -37 31 0 10 11 6 27
-9z m153 5 c0 -5 -4 -10 -10 -10 -5 0 -10 5 -10 10 0 6 5 10 10 10 6 0 10 -4
10 -10z m880 0 c0 -5 -4 -10 -10 -10 -5 0 -10 5 -10 10 0 6 5 10 10 10 6 0 10
-4 10 -10z m580 0 c0 -5 -4 -10 -10 -10 -5 0 -10 5 -10 10 0 6 5 10 10 10 6 0
10 -4 10 -10z m80 0 c0 -5 -4 -10 -10 -10 -5 0 -10 5 -10 10 0 6 5 10 10 10 6
0 10 -4 10 -10z m140 0 c0 -5 -4 -10 -10 -10 -5 0 -10 5 -10 10 0 6 5 10 10
10 6 0 10 -4 10 -10z m160 0 c0 -5 -13 -10 -30 -10 -16 0 -30 5 -30 10 0 6 14
10 30 10 17 0 30 -4 30 -10z m120 0 c0 -5 -4 -10 -10 -10 -5 0 -10 5 -10 10 0
6 5 10 10 10 6 0 10 -4 10 -10z m600 0 c0 -5 -13 -10 -30 -10 -16 0 -30 5 -30
10 0 6 14 10 30 10 17 0 30 -4 30 -10z m620 0 c0 -5 -4 -10 -10 -10 -5 0 -10
5 -10 10 0 6 5 10 10 10 6 0 10 -4 10 -10z m360 0 c0 -5 -4 -10 -10 -10 -5 0
-10 5 -10 10 0 6 5 10 10 10 6 0 10 -4 10 -10z m240 0 c0 -5 -4 -10 -10 -10
-5 0 -10 5 -10 10 0 6 5 10 10 10 6 0 10 -4 10 -10z m520 0 c0 -5 -4 -10 -10
-10 -5 0 -10 5 -10 10 0 6 5 10 10 10 6 0 10 -4 10 -10z m260 0 c0 -5 -9 -10
-20 -10 -11 0 -20 5 -20 10 0 6 9 10 20 10 11 0 20 -4 20 -10z m-17140 -20 c0
-5 -4 -10 -10 -10 -5 0 -10 5 -10 10 0 6 5 10 10 10 6 0 10 -4 10 -10z m11580
0 c0 -5 -4 -10 -10 -10 -5 0 -10 5 -10 10 0 6 5 10 10 10 6 0 10 -4 10 -10z
m1540 0 c0 -5 -4 -10 -10 -10 -5 0 -10 5 -10 10 0 6 5 10 10 10 6 0 10 -4 10
-10z m2700 0 c0 -5 -4 -10 -10 -10 -5 0 -10 5 -10 10 0 6 5 10 10 10 6 0 10
-4 10 -10z m440 0 c0 -5 -4 -10 -10 -10 -5 0 -10 5 -10 10 0 6 5 10 10 10 6 0
10 -4 10 -10z m-14960 -5722 c0 -9 -47 -195 -67 -262 -5 -17 0 -15 28 9 114
95 249 64 249 -59 0 -19 -14 -94 -30 -166 -32 -137 -32 -170 1 -170 12 0 19
-7 19 -20 0 -19 -7 -20 -106 -20 l-106 0 5 28 c3 15 22 98 42 185 20 87 33
167 30 178 -11 35 -58 24 -103 -25 -22 -23 -42 -52 -46 -62 -6 -21 -66 -291
-66 -299 0 -3 -34 -5 -76 -5 -68 0 -75 2 -70 18 8 24 136 595 136 605 0 4 -11
13 -25 19 -47 21 -27 42 45 49 115 10 140 10 140 -3z m3180 0 c0 -9 -47 -195
-67 -262 -5 -17 0 -15 28 9 114 95 249 64 249 -59 0 -19 -14 -94 -30 -166 -32
-137 -32 -170 1 -170 12 0 19 -7 19 -20 0 -19 -7 -20 -106 -20 l-106 0 5 28
c3 15 22 98 42 185 20 87 33 167 30 178 -11 35 -58 24 -103 -25 -22 -23 -42
-52 -46 -62 -6 -21 -66 -291 -66 -299 0 -3 -34 -5 -76 -5 -68 0 -75 2 -70 18
8 24 136 595 136 605 0 4 -11 13 -25 19 -47 21 -27 42 45 49 115 10 140 10
140 -3z m990 0 c0 -7 -117 -211 -259 -453 l-258 -440 -51 -3 c-29 -2 -52 -1
-52 2 0 4 488 840 516 884 11 17 24 22 59 22 29 0 45 -4 45 -12z m-5400 -23
c0 -7 -5 -37 -11 -65 l-11 -50 -65 0 -66 0 7 39 c13 85 19 91 86 91 46 0 60
-3 60 -15z m-810 -17 c0 -7 -11 -21 -25 -33 -23 -19 -36 -57 -70 -212 -5 -23
-4 -23 95 -23 95 0 100 1 105 23 43 188 44 206 15 214 -11 3 -20 14 -20 24 0
18 9 19 129 19 123 0 129 -1 124 -20 -3 -10 -13 -22 -23 -25 -26 -8 -34 -35
-90 -287 -57 -259 -59 -278 -30 -285 13 -3 20 -12 18 -22 -3 -14 -23 -16 -131
-19 -82 -2 -127 1 -127 8 0 5 13 22 29 36 25 22 34 45 55 133 14 59 26 113 26
119 0 8 -29 12 -98 12 l-99 0 -21 -97 c-28 -123 -28 -159 -2 -173 11 -6 17
-16 14 -25 -5 -12 -30 -15 -130 -15 -136 0 -145 5 -94 49 27 24 33 42 80 256
28 127 53 241 56 253 7 32 -4 62 -22 62 -8 0 -14 9 -14 20 0 19 7 20 125 20
91 0 125 -3 125 -12z m3546 -5 c-3 -10 -12 -51 -21 -90 l-17 -73 -34 0 c-33 0
-34 1 -34 38 0 52 -23 82 -64 82 l-33 0 -57 -259 c-33 -148 -55 -269 -51 -280
4 -12 15 -21 26 -21 14 0 19 -6 17 -17 -3 -16 -19 -18 -136 -21 -116 -2 -132
-1 -132 14 0 9 9 18 20 21 33 9 47 48 100 290 28 125 54 238 57 251 5 20 1 22
-29 22 -43 0 -71 -20 -99 -70 -20 -34 -27 -40 -57 -40 -30 0 -34 2 -29 23 3
12 11 50 18 85 l13 62 274 0 c256 0 273 -1 268 -17z m-4111 -149 c-14 -79 -10
-76 -204 -145 -100 -35 -181 -66 -181 -69 0 -3 68 -34 151 -69 l151 -64 -6
-44 c-3 -25 -8 -48 -11 -53 -4 -7 -395 167 -411 183 -6 6 16 99 26 110 7 8
468 186 484 187 4 0 5 -16 1 -36z m7221 -65 c110 -50 200 -92 201 -93 6 -4
-21 -103 -31 -112 -10 -11 -463 -184 -480 -184 -10 0 1 75 13 99 6 10 84 43
190 81 100 35 178 67 174 71 -5 4 -73 35 -153 68 -79 34 -145 63 -146 64 -6 6
19 97 26 97 4 0 97 -41 206 -91z m-5879 39 c-4 -13 -25 -107 -48 -211 -33
-151 -39 -190 -29 -202 7 -8 19 -15 26 -15 8 0 14 -9 14 -20 0 -19 -7 -20
-105 -20 -58 0 -105 4 -105 9 0 4 18 87 40 184 46 202 50 247 20 247 -29 0
-27 37 3 43 12 2 60 5 106 6 82 1 83 1 78 -21z m613 6 c38 -15 42 -15 59 0 18
17 39 20 64 10 12 -4 13 -13 5 -47 -5 -23 -29 -135 -53 -249 -48 -228 -70
-290 -118 -336 -115 -111 -430 -85 -430 36 0 36 23 75 58 98 23 15 27 15 51
-1 20 -13 24 -22 19 -38 -17 -55 -16 -66 4 -86 15 -15 34 -21 67 -21 102 0
150 54 188 214 l7 29 -37 -33 c-105 -92 -225 -76 -255 33 -21 79 5 211 56 289
66 100 206 146 315 102z m2635 2 c49 -21 69 -56 62 -112 -9 -84 -93 -137 -237
-150 -66 -6 -69 -8 -75 -35 -10 -44 12 -98 41 -105 46 -12 105 3 146 36 l40
33 21 -22 22 -22 -43 -39 c-76 -68 -193 -89 -279 -51 -48 22 -71 53 -84 112
-21 90 36 250 108 305 78 59 202 81 278 50z m698 3 c29 -8 37 -14 33 -27 -3
-9 -10 -36 -16 -59 -11 -43 -11 -43 -55 -43 -39 0 -45 3 -45 21 0 69 -61 81
-110 22 -57 -70 -96 -264 -61 -307 23 -28 91 -21 141 15 l43 31 21 -22 21 -21
-39 -34 c-51 -45 -123 -69 -192 -63 -99 8 -149 69 -147 177 1 117 56 230 133
275 76 45 187 59 273 35z m-1958 -206 c-4 -27 -9 -51 -12 -55 -2 -5 -54 -8
-115 -8 l-110 0 6 38 c14 77 6 72 128 72 l110 0 -7 -47z m-3380 -723 c224 -81
283 -101 450 -148 180 -52 386 -101 510 -122 378 -66 583 -91 905 -111 204
-13 983 -6 1060 9 44 9 45 9 15 16 -308 78 -499 138 -695 216 -135 53 -407
188 -414 205 -7 19 33 7 228 -64 217 -80 281 -101 451 -149 180 -52 386 -101
510 -122 28 -5 91 -17 140 -26 111 -22 356 -25 470 -6 44 8 136 22 205 33 131
21 144 23 355 65 179 35 267 55 505 115 113 28 220 54 238 56 18 3 35 9 38 14
7 12 44 11 44 -1 0 -5 -11 -10 -24 -10 -14 0 -28 -4 -31 -10 -3 -5 -15 -10
-26 -10 -10 0 -27 -4 -37 -9 -9 -5 -69 -25 -132 -44 -275 -84 -570 -158 -904
-227 -76 -16 -140 -31 -142 -33 -12 -11 395 -27 701 -27 372 0 625 13 960 51
225 25 533 70 690 100 331 63 410 80 685 150 113 28 220 54 238 56 18 3 35 9
38 14 7 12 44 11 44 -1 0 -5 -11 -10 -24 -10 -14 0 -28 -4 -31 -10 -3 -5 -15
-10 -26 -10 -10 0 -27 -4 -37 -9 -61 -32 -532 -161 -847 -231 -556 -124 -994
-181 -1600 -210 -275 -13 -750 11 -1040 52 -122 17 -224 16 -390 -4 -178 -21
-365 -35 -629 -48 -207 -10 -408 -4 -746 21 -522 38 -1074 161 -1520 339 -135
53 -407 188 -414 205 -7 18 31 8 229 -65z"/>
<path d="M13700 9890 c0 -5 5 -10 10 -10 6 0 10 5 10 10 0 6 -4 10 -10 10 -5
0 -10 -4 -10 -10z"/>
<path d="M13840 9880 c0 -13 7 -20 20 -20 11 0 20 -4 20 -10 0 -5 5 -10 10
-10 6 0 10 9 10 20 0 13 -7 20 -20 20 -11 0 -20 5 -20 10 0 6 -4 10 -10 10 -5
0 -10 -9 -10 -20z"/>
<path d="M14340 9894 c0 -7 27 -34 34 -34 3 0 6 9 6 20 0 13 -7 20 -20 20 -11
0 -20 -3 -20 -6z"/>
<path d="M14920 9890 c0 -5 5 -10 10 -10 6 0 10 5 10 10 0 6 -4 10 -10 10 -5
0 -10 -4 -10 -10z"/>
<path d="M15411 9884 c-18 -21 -6 -30 14 -11 8 9 15 18 15 21 0 11 -15 5 -29
-10z"/>
<path d="M15740 9890 c0 -5 9 -10 20 -10 11 0 20 5 20 10 0 6 -9 10 -20 10
-11 0 -20 -4 -20 -10z"/>
<path d="M15960 9890 c0 -5 5 -10 10 -10 6 0 10 5 10 10 0 6 -4 10 -10 10 -5
0 -10 -4 -10 -10z"/>
<path d="M17920 9890 c0 -5 5 -10 10 -10 6 0 10 5 10 10 0 6 -4 10 -10 10 -5
0 -10 -4 -10 -10z"/>
<path d="M18440 9890 c0 -5 5 -10 10 -10 6 0 10 5 10 10 0 6 -4 10 -10 10 -5
0 -10 -4 -10 -10z"/>
<path d="M13380 9870 c0 -5 5 -10 10 -10 6 0 10 5 10 10 0 6 -4 10 -10 10 -5
0 -10 -4 -10 -10z"/>
<path d="M15620 9870 c0 -5 5 -10 10 -10 6 0 10 5 10 10 0 6 -4 10 -10 10 -5
0 -10 -4 -10 -10z"/>
<path d="M18160 9870 c0 -5 9 -10 20 -10 11 0 20 5 20 10 0 6 -9 10 -20 10
-11 0 -20 -4 -20 -10z"/>
<path d="M18280 9870 c0 -5 9 -10 20 -10 11 0 20 5 20 10 0 6 -9 10 -20 10
-11 0 -20 -4 -20 -10z"/>
<path d="M18480 9870 c0 -5 5 -10 10 -10 6 0 10 5 10 10 0 6 -4 10 -10 10 -5
0 -10 -4 -10 -10z"/>
<path d="M15960 9850 c0 -5 5 -10 10 -10 6 0 10 5 10 10 0 6 -4 10 -10 10 -5
0 -10 -4 -10 -10z"/>
<path d="M16180 9850 c0 -5 5 -10 10 -10 6 0 10 5 10 10 0 6 -4 10 -10 10 -5
0 -10 -4 -10 -10z"/>
<path d="M17500 9850 c0 -5 5 -10 10 -10 6 0 10 5 10 10 0 6 -4 10 -10 10 -5
0 -10 -4 -10 -10z"/>
<path d="M18600 9850 c0 -5 5 -10 10 -10 6 0 10 5 10 10 0 6 -4 10 -10 10 -5
0 -10 -4 -10 -10z"/>
<path d="M14868 3811 c-54 -43 -114 -245 -92 -308 15 -45 57 -43 105 3 43 42
72 109 89 206 15 86 3 118 -43 118 -19 0 -45 -9 -59 -19z"/>
<path d="M17491 3814 c-13 -9 -36 -44 -52 -78 l-29 -61 30 -3 c16 -2 50 6 75
17 35 15 49 29 61 57 29 70 -23 111 -85 68z"/>
<path d="M22900 10070 c0 -5 5 -10 10 -10 6 0 10 5 10 10 0 6 -4 10 -10 10 -5
0 -10 -4 -10 -10z"/>
<path d="M1460 9890 c0 -5 5 -10 10 -10 6 0 10 5 10 10 0 6 -4 10 -10 10 -5 0
-10 -4 -10 -10z"/>
<path d="M1840 9890 c0 -5 5 -10 10 -10 6 0 10 5 10 10 0 6 -4 10 -10 10 -5 0
-10 -4 -10 -10z"/>
<path d="M2040 9890 c0 -5 5 -10 10 -10 6 0 10 5 10 10 0 6 -4 10 -10 10 -5 0
-10 -4 -10 -10z"/>
<path d="M2080 9890 c0 -5 9 -10 20 -10 11 0 20 5 20 10 0 6 -9 10 -20 10 -11
0 -20 -4 -20 -10z"/>
<path d="M2240 9890 c0 -5 5 -10 10 -10 6 0 10 5 10 10 0 6 -4 10 -10 10 -5 0
-10 -4 -10 -10z"/>
<path d="M3100 9890 c0 -5 5 -10 10 -10 6 0 10 5 10 10 0 6 -4 10 -10 10 -5 0
-10 -4 -10 -10z"/>
<path d="M4300 9890 c0 -5 5 -10 10 -10 6 0 10 5 10 10 0 6 -4 10 -10 10 -5 0
-10 -4 -10 -10z"/>
<path d="M4380 9890 c0 -5 5 -10 10 -10 6 0 10 5 10 10 0 6 -4 10 -10 10 -5 0
-10 -4 -10 -10z"/>
<path d="M4620 9890 c0 -5 5 -10 10 -10 6 0 10 5 10 10 0 6 -4 10 -10 10 -5 0
-10 -4 -10 -10z"/>
<path d="M5440 9890 c0 -5 9 -10 20 -10 11 0 20 5 20 10 0 6 -9 10 -20 10 -11
0 -20 -4 -20 -10z"/>
<path d="M5620 9891 c0 -5 6 -12 13 -14 9 -4 8 -8 -3 -16 -8 -5 -11 -13 -8
-17 4 -3 14 1 23 10 15 14 15 18 1 31 -17 17 -26 19 -26 6z"/>
<path d="M6420 9890 c0 -5 5 -10 10 -10 6 0 10 5 10 10 0 6 -4 10 -10 10 -5 0
-10 -4 -10 -10z"/>
<path d="M7380 9890 c0 -5 5 -10 10 -10 6 0 10 5 10 10 0 6 -4 10 -10 10 -5 0
-10 -4 -10 -10z"/>
<path d="M8280 9880 c0 -16 7 -20 30 -20 17 0 30 5 30 10 0 6 -9 10 -20 10
-11 0 -20 5 -20 10 0 6 -4 10 -10 10 -5 0 -10 -9 -10 -20z"/>
<path d="M8600 9890 c0 -5 5 -10 10 -10 6 0 10 5 10 10 0 6 -4 10 -10 10 -5 0
-10 -4 -10 -10z"/>
<path d="M8960 9890 c0 -5 5 -10 10 -10 6 0 10 5 10 10 0 6 -4 10 -10 10 -5 0
-10 -4 -10 -10z"/>
<path d="M9160 9890 c0 -5 5 -10 10 -10 6 0 10 5 10 10 0 6 -4 10 -10 10 -5 0
-10 -4 -10 -10z"/>
<path d="M9220 9890 c0 -5 5 -10 10 -10 6 0 10 5 10 10 0 6 -4 10 -10 10 -5 0
-10 -4 -10 -10z"/>
<path d="M23980 9890 c0 -5 5 -10 10 -10 6 0 10 5 10 10 0 6 -4 10 -10 10 -5
0 -10 -4 -10 -10z"/>
<path d="M24140 9890 c0 -5 5 -10 10 -10 6 0 10 5 10 10 0 6 -4 10 -10 10 -5
0 -10 -4 -10 -10z"/>
<path d="M24280 9890 c0 -5 5 -10 10 -10 6 0 10 5 10 10 0 6 -4 10 -10 10 -5
0 -10 -4 -10 -10z"/>
<path d="M25080 9890 c0 -5 5 -10 10 -10 6 0 10 5 10 10 0 6 -4 10 -10 10 -5
0 -10 -4 -10 -10z"/>
<path d="M25160 9890 c0 -5 5 -10 10 -10 6 0 10 5 10 10 0 6 -4 10 -10 10 -5
0 -10 -4 -10 -10z"/>
<path d="M25380 9894 c0 -11 29 -34 44 -34 20 0 20 7 2 26 -14 14 -46 20 -46
8z"/>
<path d="M25940 9890 c0 -5 5 -10 10 -10 6 0 10 5 10 10 0 6 -4 10 -10 10 -5
0 -10 -4 -10 -10z"/>
<path d="M26940 9890 c0 -5 5 -10 10 -10 6 0 10 5 10 10 0 6 -4 10 -10 10 -5
0 -10 -4 -10 -10z"/>
<path d="M27200 9890 c0 -5 5 -10 10 -10 6 0 10 5 10 10 0 6 -4 10 -10 10 -5
0 -10 -4 -10 -10z"/>
<path d="M27660 9880 c0 -13 7 -20 20 -20 24 0 25 6 6 26 -20 19 -26 18 -26
-6z"/>
<path d="M27780 9890 c0 -5 5 -10 10 -10 6 0 10 5 10 10 0 6 -4 10 -10 10 -5
0 -10 -4 -10 -10z"/>
<path d="M27980 9890 c0 -5 5 -10 10 -10 6 0 10 5 10 10 0 6 -4 10 -10 10 -5
0 -10 -4 -10 -10z"/>
<path d="M29000 9890 c0 -5 5 -10 10 -10 6 0 10 5 10 10 0 6 -4 10 -10 10 -5
0 -10 -4 -10 -10z"/>
<path d="M29420 9890 c0 -5 5 -10 10 -10 6 0 10 5 10 10 0 6 -4 10 -10 10 -5
0 -10 -4 -10 -10z"/>
<path d="M29460 9890 c0 -5 5 -10 10 -10 6 0 10 5 10 10 0 6 -4 10 -10 10 -5
0 -10 -4 -10 -10z"/>
<path d="M29860 9890 c0 -5 5 -10 10 -10 6 0 10 5 10 10 0 6 -4 10 -10 10 -5
0 -10 -4 -10 -10z"/>
<path d="M30140 9890 c0 -5 5 -10 10 -10 6 0 10 5 10 10 0 6 -4 10 -10 10 -5
0 -10 -4 -10 -10z"/>
<path d="M30420 9880 c0 -11 5 -20 10 -20 6 0 10 9 10 20 0 11 -4 20 -10 20
-5 0 -10 -9 -10 -20z"/>
<path d="M30560 9890 c0 -5 5 -10 10 -10 6 0 10 5 10 10 0 6 -4 10 -10 10 -5
0 -10 -4 -10 -10z"/>
<path d="M31200 9890 c0 -5 5 -10 10 -10 6 0 10 5 10 10 0 6 -4 10 -10 10 -5
0 -10 -4 -10 -10z"/>
<path d="M23273 9883 c-20 -7 -15 -23 6 -23 11 0 21 -6 24 -12 2 -8 8 -9 13
-4 5 5 4 11 -3 13 -7 3 -13 11 -13 19 0 14 -6 16 -27 7z"/>
<path d="M1417 9866 c-4 -10 -1 -13 9 -9 15 6 19 23 5 23 -5 0 -11 -7 -14 -14z"/>
<path d="M1920 9870 c0 -5 5 -10 10 -10 6 0 10 5 10 10 0 6 -4 10 -10 10 -5 0
-10 -4 -10 -10z"/>
<path d="M2680 9870 c0 -5 5 -10 10 -10 6 0 10 5 10 10 0 6 -4 10 -10 10 -5 0
-10 -4 -10 -10z"/>
<path d="M6780 9860 c0 -11 5 -20 10 -20 6 0 10 9 10 20 0 11 -4 20 -10 20 -5
0 -10 -9 -10 -20z"/>
<path d="M7480 9870 c0 -5 5 -10 10 -10 6 0 10 5 10 10 0 6 -4 10 -10 10 -5 0
-10 -4 -10 -10z"/>
<path d="M8880 9870 c0 -5 14 -10 30 -10 17 0 30 -4 30 -10 0 -5 9 -10 20 -10
11 0 20 5 20 10 0 6 -9 10 -20 10 -11 0 -20 5 -20 10 0 6 -13 10 -30 10 -16 0
-30 -4 -30 -10z"/>
<path d="M25320 9870 c0 -5 5 -10 10 -10 6 0 10 5 10 10 0 6 -4 10 -10 10 -5
0 -10 -4 -10 -10z"/>
<path d="M30800 9870 c0 -5 5 -10 10 -10 6 0 10 5 10 10 0 6 -4 10 -10 10 -5
0 -10 -4 -10 -10z"/>
</g>
</svg>
